<svg width="66" height="66" viewBox="0 0 66 66" fill="none" xmlns="http://www.w3.org/2000/svg">
<path d="M22.7068 26.7076C23.0977 26.3165 23.0977 25.6832 22.7068 25.2933C22.3171 24.9022 21.6841 24.9022 21.2932 25.2933C20.9023 25.6832 20.9023 26.3165 21.2932 26.7076C21.6841 27.0975 22.3171 27.0975 22.7068 26.7076Z" fill="#EC1F27"/>
<path fill-rule="evenodd" clip-rule="evenodd" d="M34.9766 23.1727C36.3411 24.7324 36.3411 27.2704 34.9766 28.83C33.6116 30.3902 31.3907 30.3897 30.0261 28.83C28.658 27.2662 28.658 24.736 30.0261 23.1727C31.3939 21.6088 33.6089 21.6094 34.9766 23.1727ZM33.3267 25.0585C32.8705 24.5375 32.1322 24.5375 31.676 25.0585C31.2189 25.581 31.2207 26.4238 31.676 26.9437C32.1308 27.4642 32.8714 27.4636 33.3267 26.9437C33.7811 26.4238 33.7811 25.5784 33.3267 25.0585Z" fill="#EC1F27"/>
<path fill-rule="evenodd" clip-rule="evenodd" d="M30.0261 43.8279C28.658 42.2648 28.658 39.7348 30.0261 38.1717C31.3938 36.6092 33.6086 36.6097 34.9763 38.1717C36.3412 39.7312 36.3412 42.2684 34.9763 43.8279C33.6082 45.391 31.3938 45.3904 30.0261 43.8279ZM31.6759 41.943C32.1316 42.4637 32.8703 42.4637 33.3265 41.943C33.7814 41.4229 33.7814 40.5768 33.3265 40.0571C32.8703 39.5364 32.132 39.5359 31.6759 40.0571C31.2188 40.5794 31.2206 41.4229 31.6759 41.943Z" fill="#EC1F27"/>
<path d="M22.0256 35.0011C22.1664 35.6747 22.8525 36.1101 23.5563 35.9756L41.9541 32.4608C42.6584 32.3263 43.1153 31.6716 42.9745 30.9989C42.8338 30.3257 42.1482 29.8899 41.4439 30.0243L23.0461 33.5392C22.3412 33.6736 21.8844 34.3284 22.0256 35.0011Z" fill="#EC1F27"/>
<path d="M39.6972 7C39.3591 7 39.0349 7.13658 38.7959 7.38029L25.412 21.0266C24.914 21.5344 24.914 22.3574 25.412 22.8651C25.91 23.3729 26.7172 23.3729 27.2146 22.8651L39.6972 10.1378L55.9221 26.6813L27.3028 55.8617L11.0774 39.3187L20.0035 30.2176C20.5015 29.7104 20.5015 28.8874 20.0035 28.3796C19.5056 27.8724 18.6984 27.8724 18.2004 28.3796L8.37348 38.3997C7.87551 38.907 7.87551 39.73 8.37348 40.2377L26.4015 58.6192C26.8994 59.1269 27.7061 59.1269 28.2041 58.6192L58.6265 27.6003C59.1245 27.0925 59.1245 26.2695 58.6265 25.7618L40.5985 7.38029C40.3595 7.13658 40.0353 7 39.6972 7Z" fill="#EC1F27"/>
<path fill-rule="evenodd" clip-rule="evenodd" d="M63.7988 0.378165L58.2659 5.91056C55.0377 3.47292 50.5799 3.43314 47.3789 5.80986L42.8471 1.14657L42.834 1.13348C41.3304 -0.370096 38.8853 -0.386209 37.3636 1.13549L1.13353 37.5218C-0.37759 39.033 -0.378094 41.4802 1.13353 42.9918L6.24645 48.1042C5.10442 51.3727 5.92821 55.0783 8.42525 57.5743C10.9218 60.0719 14.6273 60.8952 17.8958 59.7541L23.0087 64.8666C24.5198 66.3777 26.968 66.3772 28.4761 64.8686L64.8663 28.6343C66.3779 27.1227 66.3779 24.677 64.8663 23.1659L64.8532 23.1528L60.1904 18.6219C62.5586 15.4426 62.5495 10.9827 60.0892 7.73388L65.6216 2.20149C66.1251 1.69794 66.1251 0.881706 65.6216 0.378165C65.118 -0.125375 64.3023 -0.125375 63.7988 0.378165ZM57.5106 17.7891C57.2669 18.0333 57.1309 18.3646 57.133 18.7101C57.1355 19.055 57.2765 19.3848 57.5237 19.625L63.0485 24.9942C63.5485 25.4998 63.543 26.3115 63.045 26.809L26.6553 63.0433C26.1523 63.5463 25.334 63.5463 24.8315 63.0433L19.1144 57.3266C18.8676 57.0793 18.5373 56.9489 18.2029 56.9489C18.0176 56.9489 17.8308 56.9887 17.6556 57.0708C15.1767 58.234 12.1998 57.7037 10.2486 55.751C8.29585 53.7998 7.76562 50.8234 8.92879 48.3444C9.15941 47.8525 9.0577 47.2694 8.6735 46.8852L2.95684 41.1685C2.4538 40.6654 2.4538 39.8477 2.95835 39.3426L39.1889 2.95629C39.6904 2.45527 40.5011 2.45225 41.0057 2.95075L46.3744 8.4756C46.8558 8.97108 47.68 9.01942 48.2108 8.48919C50.4173 6.28167 53.8725 6.04602 56.4179 7.75856L54.5271 9.64935C53.0896 8.96454 51.3141 9.2158 50.1257 10.4042C48.6181 11.9123 48.6181 14.366 50.1257 15.8736C51.6368 17.3847 54.084 17.3852 55.5957 15.8736C56.8112 14.6581 57.0242 12.875 56.352 11.4707L58.2422 9.58037C59.9417 12.0961 59.7458 15.5544 57.5106 17.7891ZM53.7723 14.0508C54.2774 13.5457 54.2754 12.73 53.7723 12.227C53.2698 11.7239 52.4516 11.7249 51.9485 12.227C51.446 12.7295 51.446 13.5478 51.949 14.0508C52.4526 14.5543 53.2688 14.5543 53.7723 14.0508Z" fill="#EC1F27"/>
</svg>
