<svg width="61" height="61" viewBox="0 0 61 61" fill="none" xmlns="http://www.w3.org/2000/svg">
<path fill-rule="evenodd" clip-rule="evenodd" d="M57.0246 6.08985H36.6587V4.0599C36.6587 1.82696 34.8257 0 32.5855 0H4.07319C1.83293 0 0 1.82696 0 4.0599V26.3894C0 37.5541 10.6921 37.5541 14.2561 37.5541C14.8671 37.5541 15.2744 37.1481 15.2744 36.5391C15.2744 35.9301 14.8671 35.5241 14.2561 35.5241C12.0159 35.5241 10.183 33.6972 10.183 31.4642V31.0582C10.4885 28.9268 12.3214 27.4043 14.4598 27.4043H28.5123V29.4343H19.3476C18.7367 29.4343 18.3293 29.8403 18.3293 30.4493C18.3293 32.7837 19.2458 35.0166 20.7732 36.6406C20.4678 37.6556 20.3659 38.569 20.3659 39.584C20.3659 43.6439 22.8098 47.2978 26.4757 48.9218C26.4757 49.5308 26.1702 50.7488 23.4208 50.7488C20.5696 50.7488 18.3293 52.9817 18.3293 55.8236V60.8985H20.3659V55.8236C20.3659 54.1997 21.5879 52.8802 23.2172 52.7787L28.2068 55.2146C28.6141 55.4176 29.1233 55.6206 29.5306 55.7221V60.8985H31.5672V55.7221C32.0763 55.6206 32.4837 55.5191 32.891 55.3161L37.8806 52.8802C39.5099 52.9817 40.7319 54.3012 40.7319 55.9251V61H42.7684V55.9251C42.7684 53.0832 40.5282 50.8503 37.677 50.8503C34.9276 50.8503 34.6221 49.6323 34.6221 49.0233C38.4916 47.3993 40.8337 43.5424 40.7319 39.381V38.6705C40.7319 37.2496 40.4264 35.8286 39.7136 34.6106H46.5361C48.6746 34.6106 50.5075 36.1331 50.813 38.2646C51.0166 40.4975 49.3874 42.5275 47.1471 42.7304H46.7398C46.1288 42.7304 45.7215 43.1364 45.7215 43.7454C45.7215 44.3544 46.1288 44.7604 46.7398 44.7604C50.3038 44.7604 60.996 44.7604 60.996 33.5957V10.1498C61.0978 7.91681 59.2649 6.08985 57.0246 6.08985ZM14.4598 25.3744C11.3031 25.3744 8.55369 27.7088 8.14637 30.8552C8.04454 32.3777 8.45186 33.9002 9.36833 35.1181C4.37867 34.1032 2.03659 31.3627 2.03659 26.3894V4.0599C2.03659 2.94343 2.95306 2.02995 4.07319 2.02995H32.5855C33.7056 2.02995 34.6221 2.94343 34.6221 4.0599V23.3444C34.6221 24.4609 33.7056 25.3744 32.5855 25.3744H14.4598ZM31.5672 31.4642H20.4678C20.9769 34.9151 23.93 37.5541 27.494 37.5541H38.5934C38.0843 34.1032 35.1312 31.4642 31.5672 31.4642ZM33.2983 47.1963C32.891 47.2978 32.5855 47.7038 32.5855 48.1098V48.7188C32.4837 50.1398 33.2983 51.5607 34.6221 52.1697L31.9745 53.4892C31.058 53.8952 29.9379 53.8952 29.0214 53.4892L26.4757 52.1697C27.7995 51.5607 28.6141 50.1398 28.5123 48.7188V48.2113C28.5123 47.8053 28.2068 47.3993 27.7995 47.2978C24.5409 46.0799 22.4025 43.0349 22.4025 39.584C22.4025 39.0765 22.4025 38.5691 22.5043 38.1631C23.93 39.0765 25.6611 39.584 27.494 39.584H38.6953C38.6953 43.0349 36.5568 46.0799 33.2983 47.1963ZM51.7295 42.223C56.7191 41.208 59.0612 38.4676 59.0612 33.4942V10.1498C59.0612 9.03328 58.1447 8.1198 57.0246 8.1198H36.6587V23.3444C36.6587 25.5774 34.8257 27.4043 32.5855 27.4043H30.5489V29.4343H31.5672C34.2148 29.4343 36.6587 30.5507 38.3898 32.4792H46.638C49.8965 32.4792 52.5441 34.8136 52.9514 37.9601C53.0532 39.4825 52.6459 41.005 51.7295 42.223Z" fill="#EC1F27"/>
<path fill-rule="evenodd" clip-rule="evenodd" d="M23 11H22C21.4 11 21 10.6 21 10V7C21 5.3 19.7 4 18 4C16.3 4 15 5.3 15 7V10C15 10.6 14.6 11 14 11C14 10.4 13.6 10 13 10H9C8.4 10 8 10.4 8 11V22C8 22.6 8.4 23 9 23H13C13.6 23 14 22.6 14 22H23C24.7 22 26 20.7 26 19V14C26 12.3 24.7 11 23 11ZM12 21H10V12H12V21ZM23 20C23.6 20 24 19.6 24 19V14C24 13.4 23.6 13 23 13H22C20.3 13 19 11.7 19 10V7C19 6.4 18.6 6 18 6C17.4 6 17 6.4 17 7V10C17 11.7 15.7 13 14 13V20H23Z" fill="#EC1F27"/>
<path fill-rule="evenodd" clip-rule="evenodd" d="M56 10H52C51.4 10 51 10.4 51 11H42C40.3 11 39 12.3 39 14V19C39 20.7 40.3 22 42 22H43C43.6 22 44 22.4 44 23V26C44 27.7 45.3 29 47 29C48.7 29 50 27.7 50 26V23C50 22.4 50.4 22 51 22C51 22.6 51.4 23 52 23H56C56.6 23 57 22.6 57 22V11C57 10.4 56.6 10 56 10ZM51 20C49.3 20 48 21.3 48 23V26C48 26.6 47.6 27 47 27C46.4 27 46 26.6 46 26V23C46 21.3 44.7 20 43 20H42C41.4 20 41 19.6 41 19V14C41 13.4 41.4 13 42 13H51V20ZM53 21H55V12H53V21Z" fill="#EC1F27"/>
<rect x="38" y="27" width="4" height="2" fill="#EC1F27"/>
<path d="M27 5V4H25V5H24V7H25V8H27V7H28V5H27Z" fill="#EC1F27"/>
</svg>
