<svg width="64" height="66" viewBox="0 0 64 66" fill="none" xmlns="http://www.w3.org/2000/svg">
<path fill-rule="evenodd" clip-rule="evenodd" d="M50.6477 10.8147L63.2242 14.9796C63.6865 15.1328 64.0015 15.568 64 16.0624L63.9974 53.3956C63.9974 53.9165 63.6462 54.3714 63.1462 54.4979L50.5726 57.6982L40.8744 60.1655L18.076 65.9678C18.076 65.9678 17.9033 66.0198 17.6664 65.9917C17.4296 65.9623 17.2568 65.8597 17.2568 65.8597L0.586461 56.6507C0.225684 56.4513 0 56.0694 0 55.6537V13.1219C0 12.7526 0.176974 12.4085 0.475041 12.1951L17.1398 0.214059C17.1398 0.214059 17.353 0.0581461 17.6455 0.0104201C17.8894 -0.0288161 18.1526 0.0553927 18.1526 0.0553927L40.9509 7.60458C41.4135 7.75763 41.7269 8.19301 41.7269 8.68587V29.2217L42.117 29.2512V16.5385C42.117 16.1523 42.3093 15.7943 42.6283 15.585L49.6782 10.9439C49.6782 10.9439 49.8776 10.7965 50.1603 10.7656C50.443 10.7361 50.6435 10.8133 50.6435 10.8133H50.6422C50.6451 10.8133 50.6464 10.8133 50.6477 10.8147ZM3.24152 50.5913C3.34187 50.5212 3.40173 50.4046 3.40177 50.2811H3.40029V47.0697C3.40029 46.8998 3.28739 46.7495 3.12578 46.7031L2.15202 46.4308C2.03913 46.3998 1.91655 46.4223 1.82323 46.4953C1.73138 46.567 1.67562 46.6793 1.67562 46.7972V49.9189C1.67562 50.0775 1.77463 50.2208 1.92224 50.2755L2.896 50.6364C2.93924 50.6532 2.98238 50.6603 3.02699 50.6603C3.10222 50.6603 3.17745 50.6364 3.24152 50.5913ZM3.40177 43.8594C3.40177 43.9718 3.35294 44.0784 3.2652 44.1515C3.19691 44.2076 3.11337 44.2386 3.02563 44.2386C3.00195 44.2386 2.97965 44.2359 2.95598 44.2315L1.98222 44.0475C1.80388 44.0137 1.67437 43.8565 1.67437 43.6739V40.551C1.67437 40.4443 1.71898 40.3431 1.7983 40.2701C1.87774 40.1985 1.98222 40.1634 2.08806 40.1747L3.06182 40.2701C3.25404 40.2899 3.4004 40.4528 3.4004 40.6479V43.8594H3.40177ZM3.29171 37.7089C3.36273 37.6385 3.40177 37.5403 3.40177 37.4392H3.40199V34.2276C3.40199 34.1209 3.35886 34.0212 3.28079 33.9482C3.20283 33.8766 3.10108 33.8401 2.99524 33.85L2.02148 33.9314C1.82642 33.9469 1.67596 34.1111 1.67596 34.3091V37.4308C1.67596 37.64 1.8444 37.8086 2.05062 37.8113L3.02437 37.8183H3.02711C3.12589 37.8183 3.2207 37.779 3.29171 37.7089ZM3.40177 31.019C3.40177 31.203 3.26941 31.3602 3.0897 31.3925L2.11595 31.5624C2.09364 31.5667 2.07281 31.5681 2.05187 31.5681C1.96276 31.5681 1.87774 31.5372 1.80957 31.4796C1.72456 31.4065 1.67437 31.3012 1.67437 31.1875V28.0659C1.67437 27.8932 1.79 27.7444 1.95434 27.6994L2.92809 27.4396C3.04224 27.4102 3.16208 27.4354 3.25404 27.507C3.346 27.5786 3.39892 27.6895 3.39892 27.8075V31.019H3.40177ZM3.15104 24.9569C3.3015 24.9035 3.40177 24.759 3.40177 24.5988V21.3888C3.40177 21.261 3.33769 21.1417 3.23185 21.07C3.12453 20.9997 2.98943 20.9885 2.8738 21.0405L1.90005 21.4757C1.76348 21.5376 1.67573 21.6738 1.67573 21.8226V24.9456C1.67573 25.0692 1.73571 25.1843 1.83461 25.256C1.89868 25.3009 1.97391 25.3248 2.05187 25.3248C2.09512 25.3248 2.137 25.3178 2.17729 25.3037L3.15104 24.9569ZM3.40177 18.1785C3.40177 18.3203 3.32517 18.4467 3.2026 18.5142L2.22885 19.0366C2.17308 19.066 2.11185 19.0815 2.05187 19.0815C1.98359 19.0815 1.91678 19.0619 1.85692 19.0267C1.74402 18.9579 1.67437 18.8357 1.67437 18.7022V15.5807C1.67437 15.4487 1.74117 15.3265 1.85134 15.2591L2.82509 14.6469C2.94209 14.5738 3.08697 14.5697 3.20681 14.637C3.32665 14.7044 3.40052 14.8308 3.40052 14.9685V18.1785H3.40177ZM6.52493 51.8088C6.62531 51.7386 6.68517 51.622 6.68517 51.4985H6.68358V47.9892C6.68358 47.8193 6.57079 47.6691 6.40782 47.6242L5.24878 47.2983C5.13452 47.2675 5.01331 47.29 4.91999 47.3616C4.82678 47.4346 4.77238 47.5456 4.77238 47.6635V51.0673C4.77238 51.2261 4.87139 51.3679 5.019 51.4226L6.1794 51.8538C6.22265 51.8706 6.2659 51.8776 6.30903 51.8776C6.38426 51.8776 6.46085 51.8538 6.52493 51.8088ZM6.68517 44.4815C6.68517 44.5938 6.6351 44.7005 6.5486 44.7736C6.48031 44.8297 6.39541 44.8607 6.30767 44.8607C6.28399 44.8607 6.26169 44.8579 6.23801 44.8535L5.07898 44.6345C4.90064 44.6008 4.77112 44.4436 4.77112 44.261V40.8586C4.77112 40.7517 4.81574 40.6493 4.89506 40.5777C4.97587 40.5061 5.08034 40.471 5.18482 40.4808L6.34522 40.5946C6.53893 40.6142 6.68517 40.7771 6.68517 40.9737V44.4815ZM6.57375 37.734C6.64614 37.6639 6.68517 37.5655 6.68517 37.4658H6.68529V33.9552C6.68529 33.8498 6.64204 33.7487 6.56408 33.6771C6.48612 33.6055 6.38301 33.569 6.27853 33.5789L5.11813 33.6743C4.92169 33.6913 4.7726 33.8555 4.7726 34.0535V37.4546C4.7726 37.6639 4.94104 37.8337 5.14726 37.8352L6.3063 37.8436H6.30903C6.40793 37.8436 6.50262 37.8042 6.57375 37.734ZM6.68517 30.4474C6.68517 30.6328 6.55281 30.7901 6.37311 30.8223L5.2127 31.0231C5.1904 31.0274 5.16946 31.0287 5.14863 31.0287C5.06088 31.0287 4.9745 30.9965 4.90485 30.9389C4.81983 30.8658 4.77112 30.7605 4.77112 30.6482V27.2456C4.77112 27.073 4.88675 26.9227 5.0511 26.8777L6.2115 26.5701C6.32428 26.5407 6.44549 26.5645 6.53608 26.6375C6.62804 26.7092 6.68233 26.82 6.68233 26.9381V30.4472H6.68517V30.4474ZM6.43308 23.7885C6.58491 23.7352 6.68517 23.592 6.68517 23.4304V19.9226C6.68517 19.7949 6.6211 19.6741 6.51389 19.6039C6.40805 19.5352 6.27284 19.5253 6.15584 19.5758L4.99681 20.094C4.85887 20.1543 4.77249 20.292 4.77249 20.4408V23.8433C4.77249 23.9669 4.8311 24.082 4.93137 24.1537C4.99544 24.2 5.07067 24.2239 5.14863 24.2239C5.19051 24.2239 5.23365 24.2169 5.27405 24.2014L6.43308 23.7885ZM6.68517 16.4148C6.68517 16.5553 6.60858 16.683 6.48601 16.749L5.32697 17.3726C5.2712 17.4021 5.20997 17.4161 5.15011 17.4161C5.08182 17.4161 5.0149 17.3978 4.95504 17.3627C4.84225 17.2939 4.77249 17.1703 4.77249 17.0384V13.6358C4.77249 13.5053 4.83941 13.3831 4.94946 13.3129L6.10987 12.584C6.22686 12.5111 6.37174 12.5068 6.49158 12.5743C6.61131 12.6416 6.68517 12.768 6.68517 12.9057V16.4148ZM10.4812 53.2763C10.5815 53.2059 10.6414 53.0896 10.6414 52.9645H10.6398V49.0972C10.6398 48.9273 10.5269 48.7772 10.3653 48.7322L8.9584 48.3389C8.84562 48.308 8.72305 48.3305 8.63109 48.4021C8.53788 48.4737 8.48348 48.5861 8.48348 48.7041V52.4436C8.48348 52.6022 8.58249 52.7454 8.7301 52.8003L10.1356 53.3212C10.1789 53.3367 10.222 53.3451 10.2666 53.3451C10.3405 53.3451 10.4171 53.3212 10.4812 53.2763ZM10.6414 45.2298C10.6414 45.3422 10.5912 45.449 10.5048 45.522C10.4366 45.5782 10.3517 45.6091 10.2653 45.6091C10.2416 45.6091 10.2179 45.6064 10.1956 45.602L8.78871 45.3367C8.61026 45.3029 8.48211 45.1456 8.48211 44.9631V41.2236C8.48211 41.1168 8.52672 41.0144 8.60468 40.9428C8.68412 40.8712 8.78997 40.836 8.89444 40.8458L10.3 40.9849C10.4937 41.0045 10.6399 41.1674 10.6399 41.364V45.2298H10.6414ZM10.53 37.7635C10.6024 37.6933 10.6414 37.595 10.6414 37.4939V37.4938H10.6428V33.6237C10.6428 33.5184 10.5997 33.4173 10.5216 33.3456C10.4436 33.274 10.3405 33.2375 10.236 33.2474L8.82912 33.364C8.63416 33.3793 8.48507 33.5438 8.48507 33.7403V37.4826C8.48507 37.6919 8.65078 37.8603 8.857 37.8618L10.2625 37.873H10.2668C10.3642 37.873 10.4603 37.8337 10.53 37.7635ZM10.6414 29.7594C10.6414 29.9434 10.5091 30.1021 10.3294 30.133L8.92233 30.3787C8.90139 30.3829 8.88056 30.3843 8.85825 30.3843C8.7705 30.3843 8.68412 30.3535 8.61595 30.2959C8.53094 30.2228 8.48222 30.1175 8.48222 30.0051V26.2657C8.48222 26.093 8.59649 25.9441 8.7622 25.8992L10.1677 25.5257C10.2805 25.4962 10.4017 25.5201 10.4923 25.593C10.5843 25.6646 10.6399 25.7756 10.6399 25.8935V29.7594H10.6414ZM10.3907 22.3814C10.5412 22.328 10.6414 22.1849 10.6414 22.0233V18.1561C10.6414 18.0285 10.5773 17.9077 10.47 17.8374C10.3641 17.7686 10.229 17.7574 10.112 17.8093L8.70643 18.437C8.56997 18.4973 8.48359 18.6321 8.48359 18.7838V22.5233C8.48359 22.6469 8.54209 22.762 8.64099 22.8336C8.70643 22.8785 8.78166 22.9038 8.85825 22.9038C8.9015 22.9038 8.94327 22.8954 8.98367 22.8814L10.3907 22.3814ZM10.6414 14.2887C10.6414 14.4292 10.5648 14.557 10.4423 14.6229L9.03534 15.3784C8.97957 15.4079 8.91971 15.4219 8.85837 15.4219C8.79156 15.4219 8.72327 15.4036 8.66477 15.3685C8.55188 15.2997 8.48222 15.1761 8.48222 15.0442V11.3033C8.48222 11.1727 8.54903 11.0506 8.6592 10.9818L10.0647 10.0985C10.1831 10.0268 10.328 10.0227 10.4478 10.09C10.5677 10.1561 10.6415 10.2838 10.6415 10.4214V14.2887H10.6414ZM15.34 55.0779C15.4404 55.0076 15.5003 54.8912 15.5003 54.7662H15.4988V50.458C15.4988 50.288 15.386 50.1378 15.223 50.0928L13.4845 49.6056C13.3717 49.5747 13.2505 49.5971 13.1572 49.6688C13.0639 49.7419 13.0095 49.8528 13.0095 49.9707V54.1217C13.0095 54.2803 13.1085 54.4235 13.2561 54.4783L14.9946 55.1229C15.0378 55.1384 15.081 55.1467 15.1241 55.1467C15.1994 55.1467 15.2746 55.1229 15.34 55.0779ZM15.5003 46.1483C15.5003 46.262 15.4502 46.3687 15.3638 46.4404C15.2955 46.4979 15.2105 46.5275 15.1228 46.5275C15.0991 46.5275 15.0768 46.5247 15.0531 46.5204L13.3146 46.1918C13.1377 46.1596 13.0081 46.0023 13.0081 45.8183V41.6688C13.0081 41.5619 13.0527 41.4595 13.132 41.3879C13.2101 41.3148 13.3159 41.2812 13.4204 41.291L15.159 41.4622C15.3526 41.482 15.4988 41.6449 15.4988 41.84V46.1483H15.5003ZM15.3889 37.8016C15.4613 37.7312 15.5003 37.633 15.5003 37.5319V33.2194C15.5003 33.1141 15.4557 33.013 15.3791 32.9413C15.3011 32.8685 15.1995 32.8334 15.0922 32.8431L13.3551 32.9863C13.1587 33.0033 13.0096 33.1674 13.0096 33.3656V37.5179C13.0096 37.7272 13.1768 37.8956 13.383 37.897L15.1214 37.9111H15.1241C15.2231 37.9111 15.3177 37.8718 15.3889 37.8016ZM15.5003 28.9126C15.5003 29.098 15.3679 29.2553 15.1869 29.2877L13.4498 29.5895C13.4275 29.5937 13.4066 29.5951 13.3843 29.5951C13.298 29.5951 13.2102 29.5656 13.1419 29.5067C13.0569 29.4351 13.0082 29.3283 13.0082 29.2174V25.0664C13.0082 24.8937 13.1225 24.7435 13.2882 24.6985L15.0266 24.2394C15.1395 24.2099 15.2592 24.2337 15.3512 24.3053C15.4432 24.3784 15.4988 24.4879 15.4988 24.6058V28.9126H15.5003ZM15.2482 20.6542C15.4 20.6008 15.5003 20.4563 15.5003 20.2961V15.9865C15.5003 15.8588 15.4362 15.738 15.329 15.6677C15.2231 15.5989 15.088 15.5877 14.971 15.6396L13.2324 16.4162C13.0959 16.4766 13.0096 16.6142 13.0096 16.763V20.914C13.0096 21.0376 13.0682 21.1527 13.1684 21.2244C13.2325 21.2693 13.3077 21.2946 13.3843 21.2946C13.4262 21.2946 13.4694 21.2862 13.5098 21.2721L15.2482 20.6542ZM15.5003 11.6785C15.5002 11.8188 15.4236 11.9465 15.2998 12.0125L13.5612 12.9463C13.5069 12.9758 13.4456 12.9913 13.3843 12.9913C13.3174 12.9913 13.2506 12.9731 13.1906 12.9365C13.0779 12.8676 13.0081 12.7441 13.0081 12.6121V8.45975C13.0081 8.32919 13.075 8.20701 13.1851 8.1368L14.9235 7.04575C15.0391 6.97279 15.1867 6.96854 15.3052 7.036C15.4236 7.10335 15.4988 7.22977 15.4988 7.36744V11.6785H15.5003ZM24.4199 55.0133C24.601 54.981 24.7347 54.8237 24.7347 54.6384H24.7332V50.3624C24.7332 50.253 24.6872 50.1505 24.6051 50.0775C24.5229 50.0073 24.4142 49.9721 24.3084 49.9876L20.2951 50.5044C20.1084 50.5282 19.9678 50.6884 19.9678 50.8794V55.3253C19.9678 55.4375 20.0165 55.5428 20.1015 55.6145C20.1698 55.6733 20.2575 55.7043 20.3453 55.7043C20.3634 55.7043 20.3804 55.7022 20.3991 55.6998L20.408 55.6987L24.4199 55.0133ZM24.7347 46.0837C24.7347 46.2804 24.5856 46.4447 24.3906 46.46L20.3774 46.8097C20.3662 46.8112 20.3551 46.8112 20.3453 46.8112C20.252 46.8112 20.16 46.7775 20.0903 46.7129C20.0123 46.6398 19.9678 46.5387 19.9678 46.4334V42.0227C19.9678 41.8192 20.1252 41.652 20.3272 41.6435L24.3406 41.4595C24.445 41.4539 24.5425 41.4918 24.6163 41.5634C24.6915 41.635 24.7333 41.7347 24.7333 41.8373V46.0837H24.7347ZM24.3585 37.9095C24.5661 37.9083 24.7347 37.7382 24.7347 37.529H24.7348V33.2517C24.7348 33.048 24.5746 32.8809 24.3725 32.8739L20.3593 32.7208C20.2575 32.7166 20.1586 32.7544 20.0848 32.8261C20.0109 32.8977 19.9691 32.9959 19.9691 33.0985V37.5458C19.9691 37.6455 20.0082 37.7424 20.0792 37.8126C20.1488 37.8842 20.245 37.9235 20.3453 37.9235H20.3466L24.3585 37.9095ZM24.7347 28.973C24.7347 29.0783 24.6915 29.1808 24.6135 29.2511C24.5423 29.3156 24.4519 29.3521 24.3572 29.3521C24.3523 29.3521 24.3474 29.3518 24.3426 29.3514L24.3425 29.3514L24.3345 29.3509L24.3279 29.3508L20.316 29.0292C20.1196 29.0137 19.9691 28.8494 19.9691 28.65V24.2055C19.9691 24.0975 20.0151 23.9935 20.0959 23.9218C20.1767 23.8488 20.2839 23.8151 20.3913 23.8291L24.4032 24.3192C24.5926 24.3431 24.7347 24.5046 24.7347 24.6955V28.973ZM24.601 20.7075C24.6859 20.6359 24.7347 20.5306 24.7347 20.4183V16.1409C24.7347 15.9611 24.6079 15.8052 24.4324 15.7687L20.4205 14.943C20.3076 14.9219 20.1935 14.95 20.1071 15.0216C20.0178 15.0947 19.9678 15.2014 19.9678 15.3166V19.7609C19.9678 19.9477 20.1014 20.1064 20.2839 20.1359L24.2973 20.7945C24.3181 20.7974 24.3362 20.7987 24.3572 20.7987C24.4464 20.7987 24.5327 20.7665 24.601 20.7075ZM24.7347 11.8637C24.7347 11.9802 24.6818 12.0898 24.5898 12.1628C24.523 12.2147 24.4393 12.2442 24.3572 12.2442C24.3279 12.2442 24.2973 12.24 24.2679 12.233L20.256 11.2402C20.0875 11.1981 19.9691 11.045 19.9691 10.8709V6.42359C19.9691 6.30416 20.0249 6.19334 20.1182 6.12026C20.213 6.04856 20.3341 6.02618 20.4484 6.05842L24.4603 7.21979C24.6218 7.26614 24.7333 7.41506 24.7333 7.58496V11.8637H24.7347ZM31.5996 53.7874C31.7806 53.755 31.9144 53.5977 31.9144 53.4124H31.9129V49.4356C31.9129 49.326 31.8655 49.2236 31.7847 49.1506C31.7026 49.0804 31.5952 49.0453 31.488 49.0593L28.0291 49.5059C27.8411 49.5298 27.7004 49.6912 27.7004 49.8822V54.0051C27.7004 54.1159 27.7505 54.2227 27.8355 54.2943C27.9038 54.3532 27.9902 54.3828 28.0779 54.3828C28.0989 54.3828 28.1197 54.3813 28.1407 54.3785L31.5996 53.7874ZM31.9144 45.4588C31.9144 45.6554 31.7653 45.8198 31.5703 45.8351L28.1114 46.137C28.1003 46.1385 28.0891 46.1385 28.0793 46.1385C27.986 46.1385 27.894 46.1034 27.8244 46.0388C27.7463 45.9672 27.7018 45.866 27.7018 45.7593V41.6393C27.7018 41.4356 27.8606 41.2686 28.0626 41.2587L31.5215 41.1029C31.6217 41.0958 31.7249 41.1352 31.7972 41.2067C31.8725 41.2798 31.9142 41.378 31.9142 41.4806V45.4588H31.9144ZM31.5382 37.8842C31.7458 37.8829 31.9144 37.7116 31.9144 37.5037V37.5036H31.913V33.5283C31.913 33.3232 31.7527 33.1561 31.5494 33.1477L28.0919 33.0158C27.9902 33.01 27.8899 33.0494 27.8161 33.1211C27.7422 33.1913 27.7004 33.2909 27.7004 33.3935V37.5177C27.7004 37.6174 27.7408 37.7144 27.8119 37.786C27.8829 37.8576 27.979 37.8955 28.0779 37.8955H28.0793L31.5382 37.8842ZM31.9144 29.5488C31.9144 29.6541 31.8697 29.7552 31.7931 29.8267C31.722 29.8913 31.6315 29.9264 31.5368 29.9264H31.5368C31.5271 29.9264 31.5159 29.9264 31.5062 29.9251L28.0473 29.6485C27.8509 29.633 27.7006 29.4687 27.7006 29.2693V25.1506C27.7006 25.0411 27.7465 24.9385 27.8287 24.8669C27.9095 24.7938 28.0154 24.7602 28.1227 24.7742L31.5816 25.197C31.7711 25.2208 31.9131 25.381 31.9131 25.5733V29.5487H31.9144V29.5488ZM31.7806 21.8829C31.8655 21.8099 31.9144 21.7046 31.9144 21.5937V17.6154C31.9144 17.4343 31.7876 17.2784 31.6121 17.2433L28.1532 16.5313C28.0431 16.5089 27.9261 16.5384 27.8397 16.61C27.752 16.6816 27.7004 16.7896 27.7004 16.9035V21.0264C27.7004 21.2118 27.8355 21.3718 28.0181 21.4013L31.477 21.9672C31.4966 21.9715 31.5159 21.9728 31.5368 21.9728C31.6261 21.9728 31.7123 21.9419 31.7806 21.8829ZM31.9144 13.6401C31.9144 13.7566 31.8614 13.8662 31.7708 13.9378C31.7026 13.9911 31.6204 14.0192 31.5382 14.0192C31.5075 14.0192 31.4783 14.0165 31.4476 14.008L27.9887 13.1528C27.8202 13.1121 27.7018 12.9591 27.7018 12.7835V8.66201C27.7018 8.54258 27.7575 8.43026 27.8523 8.35868C27.9456 8.28709 28.0682 8.2646 28.1811 8.29684L31.64 9.29805C31.8015 9.3444 31.913 9.49331 31.913 9.66322V13.6401H31.9144ZM37.8388 52.7216C38.02 52.6892 38.1522 52.532 38.1523 52.3467H38.1509V48.631C38.1509 48.5229 38.1049 48.4191 38.0226 48.346C37.9407 48.2758 37.8332 48.2421 37.7262 48.2562L34.7128 48.6437C34.5263 48.669 34.3856 48.8291 34.3856 49.02V52.8621C34.3856 52.9743 34.4343 53.0796 34.5192 53.1527C34.5875 53.2102 34.6753 53.2411 34.7618 53.2411C34.784 53.2411 34.8035 53.2397 34.8257 53.2354L37.8388 52.7216ZM38.1523 44.9139C38.1523 45.112 38.0033 45.2748 37.8082 45.2917L34.7951 45.5543C34.784 45.5557 34.7729 45.5557 34.7618 45.5557C34.6684 45.5557 34.5777 45.5206 34.5068 45.456C34.4287 45.3844 34.3857 45.2833 34.3857 45.178V41.3359C34.3857 41.1338 34.5431 40.9654 34.7451 40.9568L37.7582 40.8205C37.8599 40.8148 37.9616 40.8528 38.0341 40.9244C38.1092 40.996 38.151 41.0957 38.151 41.1983V44.9139H38.1523ZM37.7761 37.8618C37.9851 37.859 38.1523 37.6905 38.1523 37.4813V33.7656C38.1523 33.5634 37.9906 33.395 37.7901 33.3878L34.777 33.2728C34.6739 33.2685 34.5762 33.3064 34.5025 33.3781C34.4273 33.4482 34.3869 33.5479 34.3869 33.6504V37.4939C34.3869 37.5936 34.4258 37.6905 34.4969 37.7621C34.5665 37.8323 34.6627 37.8717 34.7616 37.8717H34.763L37.7761 37.8618ZM38.1523 30.0486C38.1523 30.1539 38.1091 30.2565 38.0312 30.3281C37.9616 30.3927 37.8709 30.4278 37.7749 30.4278L37.7671 30.4278C37.7599 30.4277 37.7527 30.4274 37.7455 30.4264L34.7324 30.1849C34.5374 30.1681 34.387 30.0038 34.387 29.8071V25.9652C34.387 25.8571 34.433 25.7546 34.5137 25.6815C34.5946 25.6099 34.7017 25.5762 34.8091 25.5903L37.8208 25.9582C38.0102 25.9807 38.1523 26.1422 38.1523 26.3345V30.0486ZM38.02 22.9052C38.1035 22.8336 38.1523 22.7283 38.1523 22.616H38.1525V18.8975C38.1525 18.7177 38.0257 18.5618 37.8517 18.5253L34.8384 17.9074C34.7269 17.8849 34.6127 17.9129 34.5236 17.9846C34.4357 18.0576 34.3857 18.1644 34.3857 18.2795V22.1202C34.3857 22.3069 34.5192 22.4656 34.7018 22.4951L37.7151 22.9894C37.7359 22.9937 37.7553 22.9951 37.7749 22.9951C37.864 22.9951 37.9505 22.9642 38.02 22.9052ZM38.1523 15.1833C38.1523 15.2998 38.0993 15.4108 38.0076 15.4823C37.9407 15.5357 37.8598 15.5638 37.7749 15.5638C37.7455 15.5638 37.7151 15.5596 37.6858 15.5526L34.6726 14.8068C34.5055 14.7661 34.387 14.6131 34.387 14.4389V10.5956C34.387 10.4762 34.4427 10.3639 34.536 10.2923C34.6293 10.2221 34.752 10.1982 34.8662 10.2304L37.8793 11.1038C38.0396 11.1502 38.151 11.299 38.151 11.469V15.1833H38.1523ZM50.3872 56.9624C50.5544 56.9189 50.6715 56.7686 50.6715 56.5945H50.6729V37.4392C50.6729 37.4026 50.6171 33.8781 45.7555 33.6954C40.2809 33.4877 40.2225 37.435 40.2225 37.4729V59.0619C40.2225 59.1798 40.2753 59.2893 40.3673 59.3623C40.434 59.4143 40.5149 59.4424 40.5985 59.4424C40.6278 59.4424 40.6598 59.4382 40.689 59.4311L50.3872 56.9624ZM54.7447 49.5143C54.7447 49.6996 54.6108 49.8568 54.4312 49.8878L52.4517 50.2263C52.4461 50.2273 52.4407 50.2282 52.4353 50.2289C52.4306 50.2295 52.426 50.2301 52.4214 50.2305C52.4104 50.2315 52.3994 50.2319 52.3878 50.2319C52.3 50.2319 52.2135 50.2009 52.1453 50.1434C52.0604 50.0691 52.0114 49.9638 52.0114 49.8513V46.7466C52.0114 46.5556 52.1521 46.3942 52.3388 46.3703L54.3198 46.1133C54.4269 46.0993 54.5343 46.1345 54.6165 46.2047C54.6972 46.2777 54.7445 46.3802 54.7445 46.4896V49.5143H54.7447ZM54.4006 43.8453C54.5957 43.83 54.7447 43.6657 54.7447 43.469H54.7448V40.4458C54.7448 40.3418 54.703 40.2435 54.6279 40.1719C54.5554 40.1003 54.4537 40.061 54.352 40.068L52.371 40.1579C52.1693 40.1663 52.0116 40.3333 52.0116 40.5356V43.6418C52.0116 43.7471 52.0549 43.8482 52.133 43.9213C52.2039 43.9844 52.2946 44.0195 52.3879 44.0195C52.3975 44.0195 52.4087 44.0195 52.4199 44.0181L54.4006 43.8453ZM54.7447 37.3998C54.7447 37.6091 54.5762 37.779 54.3699 37.779L52.3891 37.7861H52.3878C52.2889 37.7861 52.1926 37.7467 52.1231 37.6751C52.0519 37.6036 52.013 37.508 52.013 37.4069V34.3273C52.013 34.2248 52.0533 34.1266 52.1273 34.0535C52.201 33.9819 52.3 33.944 52.4031 33.9482L54.3826 34.0255C54.5844 34.0325 54.746 34.1996 54.746 34.4047V37.3998H54.7447ZM54.6236 31.6564C54.7002 31.5863 54.7447 31.4837 54.7447 31.3784V28.3564C54.7447 28.164 54.6026 28.0026 54.4132 27.9801L52.4323 27.7386C52.3264 27.7231 52.2191 27.7582 52.1384 27.8298C52.0575 27.9029 52.0115 28.0055 52.0115 28.1135V31.2183C52.0115 31.4177 52.162 31.5819 52.3572 31.5974L54.3379 31.7561C54.3463 31.7561 54.3575 31.7575 54.3673 31.7575C54.462 31.7575 54.5524 31.7225 54.6236 31.6564ZM54.7447 25.3345C54.7447 25.4455 54.6959 25.5508 54.6108 25.6238C54.5425 25.6827 54.4564 25.7137 54.3672 25.7137C54.3462 25.7137 54.3268 25.7123 54.3072 25.7081L52.3264 25.3851C52.1439 25.3557 52.0102 25.1956 52.0102 25.0102V21.904C52.0102 21.7903 52.0603 21.6836 52.1482 21.6105C52.2358 21.539 52.3516 21.5108 52.463 21.532L54.4425 21.9391C54.6181 21.9756 54.7448 22.1315 54.7448 22.3113V25.3345H54.7447ZM54.6013 19.5884C54.6917 19.5168 54.7447 19.4059 54.7447 19.2893H54.7445V16.2673C54.7445 16.0974 54.6332 15.9486 54.4716 15.9022L52.4921 15.3293C52.3779 15.2971 52.2552 15.3196 52.1619 15.3911C52.0659 15.4627 52.0114 15.575 52.0114 15.6945V18.7992C52.0114 18.9732 52.1299 19.1264 52.2971 19.1685L54.2794 19.6586C54.3088 19.6671 54.3392 19.6698 54.3685 19.6698C54.4521 19.6698 54.533 19.6417 54.6013 19.5884ZM58.4041 48.8881C58.404 49.0733 58.2704 49.2306 58.0893 49.2615L56.3077 49.5676C56.2868 49.5704 56.266 49.5719 56.245 49.5719C56.1573 49.5719 56.0708 49.5424 56.0011 49.4834C55.9162 49.4118 55.8673 49.305 55.8673 49.1942V46.2494C55.8673 46.0584 56.0093 45.897 56.1961 45.8731L57.9779 45.6427C58.085 45.6287 58.1924 45.6625 58.2743 45.7356C58.3566 45.8071 58.4026 45.911 58.4026 46.0192V48.8881H58.4041ZM58.06 43.5294C58.2551 43.5111 58.4041 43.3482 58.4041 43.1502H58.4042V40.28C58.4042 40.1761 58.3624 40.0777 58.2873 40.0061C58.2148 39.9346 58.1131 39.8966 58.0115 39.9022L56.2299 39.9837C56.0278 39.9923 55.8689 40.1593 55.8689 40.3628V43.3061C55.8689 43.4129 55.9135 43.514 55.9916 43.5857C56.0611 43.6502 56.1532 43.6853 56.2465 43.6853C56.2563 43.6853 56.2673 43.6853 56.2785 43.6839L58.06 43.5294ZM58.4041 37.4125C58.4041 37.6204 58.2357 37.7917 58.028 37.7917L56.2464 37.7988H56.245C56.1461 37.7988 56.0498 37.7595 55.9803 37.6879C55.9092 37.6162 55.8688 37.5207 55.8688 37.4197V34.4749C55.8688 34.3695 55.9105 34.2713 55.9846 34.1998C56.0584 34.1282 56.1574 34.0902 56.2589 34.0944L58.0421 34.1633C58.2439 34.1716 58.4042 34.3388 58.4042 34.5424V37.4125H58.4041ZM58.283 31.95C58.361 31.8798 58.4041 31.7772 58.4041 31.6719V28.8017C58.4041 28.6108 58.2621 28.4492 58.0727 28.4254L56.2909 28.2091C56.185 28.195 56.0777 28.2287 55.997 28.3003C55.9147 28.3734 55.8688 28.4759 55.8688 28.584V31.5287C55.8688 31.7267 56.0192 31.891 56.2158 31.9079L57.9973 32.0497L58.006 32.05L58.012 32.0504L58.0188 32.0508L58.0267 32.0511C58.1214 32.0511 58.2135 32.0159 58.283 31.95ZM58.4041 25.9328C58.4041 26.0452 58.3554 26.1505 58.2705 26.2221C58.202 26.281 58.1158 26.3133 58.0266 26.3133C58.0056 26.3133 57.9874 26.3119 57.9666 26.309L56.185 26.0169C56.0025 25.9874 55.8674 25.8274 55.8674 25.642V22.6973C55.8674 22.5835 55.9189 22.4755 56.0068 22.4038C56.0931 22.3308 56.2088 22.3027 56.3202 22.3252L58.1018 22.6916C58.2774 22.7267 58.4041 22.884 58.4041 23.0638V25.9328ZM58.2592 20.4941C58.3512 20.4212 58.4041 20.3116 58.4041 20.1951V20.1948H58.4027V17.326C58.4027 17.1561 58.2914 17.0073 58.1298 16.9609L56.348 16.4456C56.2352 16.4133 56.1125 16.4343 56.0192 16.5074C55.9245 16.579 55.8688 16.6914 55.8688 16.8108V19.7542C55.8688 19.9297 55.9872 20.0827 56.1557 20.1235L57.9362 20.563C57.9667 20.5714 57.9973 20.5742 58.0267 20.5742C58.1102 20.5742 58.1925 20.5461 58.2592 20.4941ZM61.7113 48.3234C61.7113 48.5088 61.5774 48.6661 61.3963 48.6985L59.7847 48.9723C59.7623 48.9766 59.7429 48.9779 59.722 48.9779C59.6329 48.9779 59.5464 48.9484 59.4781 48.8895C59.3932 48.8165 59.3443 48.7112 59.3443 48.6003V45.8015C59.3443 45.6105 59.4849 45.4491 59.6731 45.4252L61.2848 45.2173C61.3922 45.2032 61.4994 45.237 61.5815 45.3085C61.6638 45.3802 61.7098 45.4841 61.7098 45.5936V48.3234H61.7113ZM61.3672 43.2402C61.5621 43.2219 61.7113 43.059 61.7113 42.861V40.1298C61.7113 40.0258 61.6695 39.9276 61.5942 39.856C61.5203 39.7844 61.4188 39.745 61.3185 39.7506L59.7052 39.825C59.5034 39.8335 59.346 40.0006 59.346 40.2042V43.0029C59.346 43.1096 59.3904 43.2108 59.4684 43.2824C59.538 43.347 59.6301 43.3821 59.7234 43.3821C59.7332 43.3821 59.7443 43.3821 59.7541 43.3807L61.3672 43.2402ZM61.7113 37.3998C61.7113 37.6091 61.5426 37.779 61.3351 37.7803L59.7234 37.786H59.722C59.6231 37.786 59.5255 37.7466 59.4559 37.675C59.3848 37.6034 59.3459 37.5079 59.3459 37.4068V34.6096C59.3459 34.5056 59.3876 34.4073 59.4615 34.3343C59.5352 34.2627 59.6329 34.2248 59.7358 34.229L61.3489 34.2907C61.5509 34.2992 61.7113 34.4663 61.7113 34.6713V37.3998ZM61.5902 32.2168C61.6666 32.1438 61.7113 32.0441 61.7113 31.9374V29.2045C61.7113 29.0136 61.5693 28.852 61.3796 28.8282L59.7679 28.6317C59.6607 28.619 59.5533 28.6528 59.4727 28.7243C59.3917 28.7974 59.346 28.9 59.346 29.0081V31.8068C59.346 32.0048 59.4962 32.1691 59.6928 32.186L61.3045 32.3152C61.3078 32.3157 61.3116 32.316 61.3156 32.3162C61.3215 32.3165 61.3279 32.3165 61.3337 32.3165C61.4286 32.3165 61.5191 32.2814 61.5902 32.2168ZM61.7113 26.4762C61.7113 26.5871 61.6623 26.6924 61.5774 26.764C61.5092 26.823 61.423 26.8539 61.3335 26.8539C61.3126 26.8539 61.2933 26.8525 61.2738 26.8496L59.6607 26.5856C59.4781 26.5561 59.3459 26.396 59.3459 26.2106V23.412C59.3459 23.2982 59.3958 23.1915 59.4851 23.1185C59.5728 23.0468 59.6884 23.0188 59.7985 23.0398L61.4103 23.3712C61.5859 23.4063 61.7125 23.5636 61.7125 23.7434V26.4761H61.7113V26.4762ZM61.5664 21.3115C61.6584 21.2399 61.7113 21.1303 61.7113 21.0137H61.7098V18.2825C61.7098 18.1139 61.5985 17.9638 61.4369 17.9174L59.8251 17.4512C59.7124 17.4189 59.5898 17.4414 59.4951 17.513C59.4016 17.5846 59.3461 17.6969 59.3461 17.8163V20.615C59.3461 20.7891 59.4643 20.9422 59.633 20.9829L61.2446 21.3817C61.2739 21.3902 61.3045 21.3929 61.3337 21.3929C61.4172 21.3929 61.4995 21.3648 61.5664 21.3115Z" fill="white"/>
</svg>
