<svg width="55" height="58" viewBox="0 0 55 58" fill="none" xmlns="http://www.w3.org/2000/svg">
<path fill-rule="evenodd" clip-rule="evenodd" d="M55 9.0133H50.6895V23.6432H52.4129V30.3611H49.1369V8.16382C49.1382 3.65465 45.4323 0 40.8616 0H13.6192C9.04973 0 5.34386 3.65465 5.34386 8.16382V29.9357H2.49907V22.79H4.30927V8.16382H0V22.79H1.8102V30.6178H5.34386V46.6069C5.34386 49.6952 7.08645 52.3871 9.6544 53.7727V57.9987H16.8952V54.7695H37.4121V58H44.6554V53.8545C47.3165 52.5004 49.1369 49.7632 49.1369 46.6056V31.0394H53.1031V23.642H55V9.0133ZM17.7588 1.69896H37.0677V6.12381H17.7588V1.69896ZM9.13775 46.2646H19.8267V41.505H9.13775V46.2646ZM45.6888 46.2646H34.9998V41.505H45.6888V46.2646ZM27.0688 37.4212C43.6196 37.4212 45.6888 30.9563 45.6888 30.9563V8.50235H8.79076V30.9563C8.79076 30.9563 10.5155 37.4212 27.0688 37.4212Z" fill="white"/>
</svg>
