<svg width="60" height="60" viewBox="0 0 60 60" fill="none" xmlns="http://www.w3.org/2000/svg">
<path d="M20 0C11.7157 0 5 6.71575 5 15V26C5.00438 29.8641 8.13587 32.9956 12 33H13V31H12C9.24 30.9967 7.00325 28.76 7 26V15C7 7.82025 12.8203 2 20 2C27.1797 2 33 7.82025 33 15V26C32.9967 28.76 30.76 30.9967 28 31H27V33H28C31.8641 32.9956 34.9956 29.8641 35 26V15C35 6.71575 28.2843 0 20 0Z" fill="#EC1F27"/>
<path d="M8.26379 47.2092L9 46.0653L7.29895 45L6.56274 46.1448C4.33609 49.6071 4.50139 54.0652 6.97868 57.3576V60H8.99295V57.0187C8.99308 56.793 8.91527 56.5738 8.77239 56.3976C6.63122 53.7564 6.4269 50.0648 8.26379 47.2092Z" fill="#EC1F27"/>
<path fill-rule="evenodd" clip-rule="evenodd" d="M42 0H55C57.76 0.00325 59.9967 2.24 60 5V15C59.9967 17.76 57.76 19.9967 55 20H50.414L45.707 24.707C45.5195 24.8945 45.2653 25 45 25C44.8685 25.0004 44.7384 24.9746 44.617 24.924C44.2434 24.7691 43.9999 24.4044 44 24V20H42C39.24 19.9967 37.0033 17.76 37 15V5C37.0033 2.24 39.24 0.00325 42 0ZM55 18C56.6569 18 58 16.6569 58 15V5C58 3.34312 56.6569 2 55 2H42C40.3431 2 39 3.34312 39 5V15C39 16.6569 40.3431 18 42 18H45C45.5522 18 46 18.4477 46 19V21.586L49.293 18.293C49.4805 18.1055 49.7347 18 50 18H55Z" fill="#EC1F27"/>
<rect x="42" y="5" width="7" height="2" fill="#EC1F27"/>
<rect x="51" y="5" width="4" height="2" fill="#EC1F27"/>
<rect x="42" y="9" width="13" height="2" fill="#EC1F27"/>
<rect x="42" y="13" width="7" height="2" fill="#EC1F27"/>
<path d="M33.4373 46.1448L32.701 45L31 46.0653L31.7362 47.2101C33.5732 50.0654 33.3689 53.7567 31.2276 56.3976C31.0847 56.5738 31.0069 56.793 31.007 57.0187V60H33.0213V57.3576C35.4986 54.0652 35.6639 49.6071 33.4373 46.1448Z" fill="#EC1F27"/>
<path fill-rule="evenodd" clip-rule="evenodd" d="M59 34.1365H50C46.248 34.1409 43.1667 37.0871 43.014 40.8162L40 46.2138V42.0945C39.9956 38.2507 36.8641 35.1356 33 35.1313H29.345L29.318 35.1104L29.3 35.1313H27C25.8954 35.1313 25 34.2406 25 33.1418V30.8011C28.0899 29.0265 29.9953 25.7486 30 22.1995V14.2415C29.9985 12.5933 29.5862 10.9713 28.8 9.52042C28.5481 9.05886 27.9789 8.87147 27.5 9.09268L10.574 17.0149C10.2235 17.179 9.99988 17.5298 10 17.9151V22.1995C10.0048 25.7486 11.9101 29.0265 15 30.8011V33.1418C15 34.2406 14.1046 35.1313 13 35.1313H7C3.13587 35.1356 0.004375 38.2507 0 42.0945V60H2V42.0945C2.00325 39.349 4.24 37.124 7 37.1208H10.182L19.187 49.6367C19.372 49.894 19.669 50.0483 19.987 50.0525H20C20.3148 50.0525 20.6111 49.905 20.8 49.6546L30.3 37.1208H33C35.76 37.124 37.9967 39.349 38 42.0945V50.0525C38.0005 50.6019 38.4486 51.0469 39.0009 51.0464C39.3636 51.046 39.6978 50.8504 39.874 50.535L44.588 42.0945H50.321L40.571 60H42.846L52.6 42.0945H53C56.8641 42.0901 59.9956 38.9751 60 35.1313C60 34.5819 59.5522 34.1365 59 34.1365ZM12 22.1995V18.5468L27.441 11.3189C27.8104 12.2495 28 13.241 28 14.2415V22.1995C28 26.5946 24.4183 30.1575 20 30.1575C15.5817 30.1575 12 26.5946 12 22.1995ZM16.935 43.0893L20.021 47.3786L23.271 43.0893H16.935ZM24.784 41.0998H15.5L12.637 37.1208H13C15.2091 37.1208 17 35.3393 17 33.1418V31.6884C18.9527 32.2998 21.0473 32.2998 23 31.6884V33.1418C23 35.3393 24.7909 37.1208 27 37.1208H27.8L24.784 41.0998ZM45.1 40.105H53C55.3752 40.1024 57.4219 38.4404 57.9 36.126H50C47.6247 36.1286 45.5781 37.7906 45.1 40.105Z" fill="#EC1F27"/>
</svg>
