<svg width="20" height="20" viewBox="0 0 20 20" fill="none" xmlns="http://www.w3.org/2000/svg">
<path fill-rule="evenodd" clip-rule="evenodd" d="M20 10C20 15.5228 15.5228 20 10 20C4.47715 20 0 15.5228 0 10C0 4.47715 4.47715 0 10 0C15.5228 0 20 4.47715 20 10ZM6 4H6.66667H8.66667H12.4706C14.4198 4 16 5.58017 16 7.52941C16 9.47865 14.4198 11.0588 12.4706 11.0588H8.66667V16H6V4ZM8.66667 9.29412V5.76471H11.902C12.8766 5.76471 13.6667 6.55479 13.6667 7.52941C13.6667 8.50403 12.8766 9.29412 11.902 9.29412H8.66667Z" fill="white"/>
</svg>
