<svg width="7" height="14" viewBox="0 0 7 14" fill="none" xmlns="http://www.w3.org/2000/svg">
<path d="M4.5 5H6.75L6.46875 7.25H4.5V14H1.58203V7.25H0V5H1.58203V3.48828C1.58203 2.50391 1.82812 1.76562 2.32031 1.27344C2.8125 0.757812 3.63281 0.5 4.78125 0.5H6.75V2.75H5.55469C5.10938 2.75 4.81641 2.82031 4.67578 2.96094C4.55859 3.10156 4.5 3.33594 4.5 3.66406V5ZM5.97656 6.6875L6.11719 5.5625H4.53516H3.9375V4.96484V3.66406C3.9375 3.19531 4.04297 2.84375 4.25391 2.60938C4.51172 2.32812 4.94531 2.1875 5.55469 2.1875H6.1875V1.0625H4.78125C3.75 1.0625 3.04688 1.27344 2.67188 1.69531C2.32031 2.07031 2.14453 2.66797 2.14453 3.48828V5V5.5625H1.61719H0.5625V6.6875H1.61719H2.14453V7.25V13.4375H3.9375V7.25V6.6875H4.53516H5.97656Z" fill="white"/>
</svg>
