<svg width="16" height="14" viewBox="0 0 16 14" fill="none" xmlns="http://www.w3.org/2000/svg">
<path d="M6.75 1.13281C7.59375 1.83594 8.01562 2.63281 8.01562 3.52344C8.01562 4.4375 7.51172 5.28125 6.50391 6.05469C6.15234 6.40625 5.97656 6.6875 5.97656 6.89844C5.97656 7.20312 6.14062 7.46094 6.46875 7.67188L7.10156 8.16406C7.45312 8.44531 7.71094 8.67969 7.875 8.86719C8.03906 9.03125 8.20312 9.27734 8.36719 9.60547C8.53125 9.93359 8.61328 10.2852 8.61328 10.6602C8.61328 11.5508 8.17969 12.3359 7.3125 13.0156C6.46875 13.6719 5.32031 14 3.86719 14C2.625 14 1.66406 13.7539 0.984375 13.2617C0.328125 12.7695 0 12.1719 0 11.4688C0 10.5781 0.46875 9.85156 1.40625 9.28906C2.08594 8.89062 3.23438 8.62109 4.85156 8.48047C4.47656 7.98828 4.28906 7.58984 4.28906 7.28516C4.28906 7.16797 4.34766 6.93359 4.46484 6.58203C4.39453 6.58203 4.28906 6.59375 4.14844 6.61719C4.03125 6.61719 3.94922 6.61719 3.90234 6.61719C2.98828 6.61719 2.26172 6.33594 1.72266 5.77344C1.18359 5.21094 0.914062 4.56641 0.914062 3.83984C0.914062 2.92578 1.28906 2.14063 2.03906 1.48438C2.83594 0.828125 3.91406 0.5 5.27344 0.5H9L7.83984 1.13281H6.75ZM5.44922 9.00781C5.40234 9.00781 5.33203 9.00781 5.23828 9.00781C5.16797 8.98438 5.09766 8.97266 5.02734 8.97266C4.34766 8.97266 3.71484 9.06641 3.12891 9.25391C2.09766 9.62891 1.58203 10.2383 1.58203 11.082C1.58203 11.7148 1.875 12.2422 2.46094 12.6641C3.04688 13.0625 3.82031 13.2617 4.78125 13.2617C5.625 13.2617 6.26953 13.0859 6.71484 12.7344C7.18359 12.3594 7.41797 11.8906 7.41797 11.3281C7.41797 10.9062 7.27734 10.5547 6.99609 10.2734C6.73828 9.96875 6.22266 9.54688 5.44922 9.00781ZM5.97656 5.63281C6.28125 5.32812 6.43359 4.89453 6.43359 4.33203C6.43359 3.58203 6.22266 2.85547 5.80078 2.15234C5.40234 1.44922 4.85156 1.09766 4.14844 1.09766C3.60938 1.09766 3.1875 1.28516 2.88281 1.66016C2.625 1.96484 2.49609 2.39844 2.49609 2.96094C2.49609 3.6875 2.69531 4.40234 3.09375 5.10547C3.49219 5.78516 4.04297 6.125 4.74609 6.125C5.23828 6.125 5.64844 5.96094 5.97656 5.63281ZM15.75 3.24219V3.875H13.0078V6.72266H12.375V3.875H9.5625V3.24219H12.375V0.5H13.0078V3.24219H15.75Z" fill="white"/>
</svg>
