<svg width="63" height="61" viewBox="0 0 63 61" fill="none" xmlns="http://www.w3.org/2000/svg">
<path fill-rule="evenodd" clip-rule="evenodd" d="M63 29.4194C63 44.1256 52.328 56.3458 38.4424 58.5005C38.5595 57.8478 38.5923 57.1719 38.5135 56.487L38.322 54.823C43.252 53.9693 47.7029 51.67 51.2308 48.3633C51.0191 48.1843 50.8082 47.9521 50.6002 47.6439C49.9919 46.7416 50.295 45.8439 50.5825 44.9926C50.7377 44.5328 50.8885 44.0864 50.8885 43.6602C50.8885 42.9971 50.1568 42.7333 49.4926 42.4937C48.9628 42.3027 48.476 42.1271 48.4376 41.7768C48.2222 39.8054 49.1757 39.2362 50.114 38.676C50.477 38.4592 50.8377 38.2439 51.1276 37.9492C52.1669 36.8928 50.1003 34.4912 48.7655 34.6462C47.4216 34.792 43.6388 34.0154 43.9845 31.0736C44.2463 28.8466 42.4475 28.1259 40.8797 27.4978C39.9252 27.1154 39.0563 26.7673 38.7901 26.1345C37.7647 23.6969 39.4693 20.7069 41.6926 20.0276C44.8418 19.0655 47.9441 16.4542 47.7018 13.5473C47.4273 10.2551 45.9612 7.28595 43.5465 5.52216C41.0337 4.48746 38.3242 3.84763 35.4894 3.68619C32.9594 3.78789 30.735 4.35939 30.8365 5.53671C30.9552 6.91244 32.8525 7.80256 34.6585 8.64979C36.6399 9.57933 38.5112 10.4572 37.8026 11.8682C37.5434 12.3841 36.6657 12.978 35.7071 13.6264C34.0537 14.7451 32.1598 16.0263 32.7864 17.3509C33.0342 17.8747 33.4213 18.0241 33.7701 18.1586C34.3274 18.3737 34.7868 18.5509 34.423 20.1578C34.1508 21.3598 33.1139 23.6183 31.5192 23.764C30.8814 23.8246 30.2853 23.1896 29.5303 22.3854C28.355 21.1336 26.7945 19.4715 24.092 19.3838C21.9937 19.3156 19.0375 22.7115 21.5476 25.1208C22.2395 25.7849 23.2075 25.4811 24.1362 25.1896C25.2478 24.8408 26.3033 24.5095 26.7619 25.8768C26.9312 26.3814 26.9974 27.0445 27.0698 27.7707L27.0698 27.7707C27.2513 29.5893 27.4722 31.803 29.4508 32.9125C29.949 33.1918 30.5781 33.4534 31.2715 33.7418L31.2716 33.7418C31.9833 34.0378 32.7627 34.3619 33.5378 34.7622C31.2664 35.2337 28.4755 36.1134 25.1798 37.4038L22.4031 36.6591C22.6409 36.4579 22.909 36.2689 23.1811 36.0771C24.2393 35.3313 25.357 34.5436 24.979 32.8341C24.6212 31.2157 23.0299 30.7397 21.0628 30.1512C19.1919 29.5916 16.9812 28.9302 15.1686 27.0879C14.0278 25.9285 11.5946 22.0788 11.6046 17.4537C9.75099 21.0323 8.69605 25.1021 8.69605 29.4195C8.69605 30.7484 8.7958 32.0542 8.98758 33.3296C8.96677 33.3292 8.94608 33.3273 8.92541 33.3254H8.92535C8.90257 33.3232 8.87982 33.3211 8.85695 33.3211C7.68589 33.3211 6.53738 33.5712 5.47296 34.044C5.23785 32.5368 5.11236 30.9931 5.11236 29.4196C5.11236 13.198 18.0966 2.4885e-09 34.056 2.4885e-09C50.0157 -0.000209262 63 13.1978 63 29.4194ZM41.2886 37.9942L34.2196 41.2969L34.3292 39.7313L38.9087 37.6301C38.2555 37.5826 37.5788 37.5645 36.9031 37.5645C34.3729 37.5645 30.098 38.8663 25.37 40.7738L10.206 36.7084C8.78891 36.3283 7.2802 36.5624 6.03904 37.355L5.29344 37.8311C4.56554 38.2958 4.55782 39.3715 5.27892 39.8471L14.3943 45.858C12.2167 46.9899 10.1508 48.1395 8.32958 49.2374L3.65214 46.7204C2.88811 46.3093 1.9848 46.2605 1.18238 46.5872L0.739626 46.7676C0.0793613 47.0362 -0.197242 47.8343 0.151729 48.4643L2.72845 53.1175L2.72958 53.1171C1.75741 53.9672 1.20338 54.6722 1.20338 55.1601C1.20338 56.6204 2.97129 56.9853 4.52961 56.9853C7.30902 56.9853 44.0145 48.4431 44.0145 40.7041C44.0142 39.1714 42.983 38.4049 41.2886 37.9942ZM33.8897 50.212L25.8126 53.104C25.4194 53.2448 25.2911 53.7451 25.5665 54.0632L31.2229 60.5943C31.5676 60.9922 32.1289 61.112 32.602 60.8885L33.3595 60.5307C34.7408 59.878 35.5545 58.3982 35.3776 56.8604L34.6695 50.7065C34.6256 50.3256 34.2454 50.0845 33.8897 50.212Z" fill="white"/>
</svg>
