<svg width="24" height="24" viewBox="0 0 24 24" fill="none" xmlns="http://www.w3.org/2000/svg">
<path fill-rule="evenodd" clip-rule="evenodd" d="M2.63604 15.364C5.91175 18.6397 11.0843 18.8624 14.618 16.0322L21.7279 23.1421L23.1421 21.7279L16.0322 14.618C18.8624 11.0843 18.6397 5.91175 15.364 2.63604C11.8492 -0.87868 6.15076 -0.87868 2.63604 2.63604C-0.87868 6.15076 -0.87868 11.8492 2.63604 15.364ZM13.9497 4.05025C16.6834 6.78392 16.6834 11.2161 13.9497 13.9497C11.2161 16.6834 6.78392 16.6834 4.05025 13.9497C1.31658 11.2161 1.31658 6.78392 4.05025 4.05025C6.78392 1.31658 11.2161 1.31658 13.9497 4.05025Z" fill="#1A1A1A"/>
</svg>
