<svg width="30" height="26" viewBox="0 0 30 26" fill="none" xmlns="http://www.w3.org/2000/svg">
<path fill-rule="evenodd" clip-rule="evenodd" d="M15.7883 12.0532C16.1061 12.6444 16.1061 13.3556 15.7883 13.9468L9.59334 25.4734C9.41905 25.7977 9.08066 26 8.7125 26H1.99993C1.2436 26 0.761031 25.1928 1.11909 24.5266L6.8052 13.9468C7.12296 13.3556 7.12296 12.6444 6.8052 12.0532L1.11909 1.47341C0.761031 0.807203 1.2436 0 1.99993 0H8.7125C9.08066 0 9.41905 0.202296 9.59334 0.52659L15.7883 12.0532ZM29.7621 12.0532C30.0798 12.6444 30.0798 13.3556 29.7621 13.9468L23.5671 25.4734C23.3928 25.7977 23.0544 26 22.6863 26H15.9737C15.2174 26 14.7348 25.1928 15.0928 24.5266L20.779 13.9468C21.0967 13.3556 21.0967 12.6444 20.779 12.0532L15.0928 1.47341C14.7348 0.807203 15.2174 0 15.9737 0H22.6863C23.0544 0 23.3928 0.202296 23.5671 0.52659L29.7621 12.0532Z" fill="white"/>
</svg>
