<svg width="14" height="14" viewBox="0 0 14 14" fill="none" xmlns="http://www.w3.org/2000/svg">
<path d="M3.72656 1.625C3 1.625 2.37891 1.88281 1.86328 2.39844C1.37109 2.89062 1.125 3.48828 1.125 4.19141C1.125 4.61328 1.24219 5.03516 1.47656 5.45703L1.6875 5.84375L1.61719 6.26562C1.54688 6.61719 1.51172 6.96875 1.51172 7.32031C1.51172 8.75 2.02734 9.98047 3.05859 11.0117C4.08984 12.043 5.34375 12.5586 6.82031 12.5586C7.14844 12.5586 7.47656 12.5234 7.80469 12.4531L8.19141 12.3828L8.50781 12.5586C8.88281 12.7695 9.30469 12.875 9.77344 12.875C10.5 12.875 11.1094 12.6289 11.6016 12.1367C12.1172 11.6211 12.375 11.0117 12.375 10.3086C12.375 9.93359 12.2812 9.55859 12.0938 9.18359L11.918 8.83203L12.0234 8.44531C12.0938 8.09375 12.1289 7.71875 12.1289 7.32031C12.1289 5.89062 11.6133 4.66016 10.582 3.62891C9.57422 2.62109 8.32031 2.11719 6.82031 2.11719C6.39844 2.11719 6.09375 2.14063 5.90625 2.1875L5.48438 2.25781L5.13281 2.01172C4.6875 1.75391 4.21875 1.625 3.72656 1.625ZM3.72656 0.5C4.42969 0.5 5.08594 0.6875 5.69531 1.0625C5.92969 1.01563 6.30469 0.992188 6.82031 0.992188C8.60156 0.992188 10.1133 1.61328 11.3555 2.85547C12.6211 4.07422 13.2539 5.5625 13.2539 7.32031C13.2539 7.85938 13.207 8.31641 13.1133 8.69141C13.3711 9.20703 13.5 9.74609 13.5 10.3086C13.5 11.3398 13.1367 12.2188 12.4102 12.9453C11.6836 13.6484 10.8047 14 9.77344 14C9.11719 14 8.53125 13.8594 8.01562 13.5781C7.64062 13.6484 7.24219 13.6836 6.82031 13.6836C5.03906 13.6836 3.51562 13.0625 2.25 11.8203C1.00781 10.5781 0.386719 9.07812 0.386719 7.32031C0.386719 7.03906 0.433594 6.61719 0.527344 6.05469C0.175781 5.42188 0 4.80078 0 4.19141C0 3.16016 0.363281 2.29297 1.08984 1.58984C1.81641 0.863281 2.69531 0.5 3.72656 0.5ZM10.125 10.3438C9.86719 10.7422 9.43359 11.0703 8.82422 11.3281C8.28516 11.5625 7.60547 11.6797 6.78516 11.6797C5.87109 11.6797 5.10938 11.5156 4.5 11.1875C4.05469 10.9297 3.70312 10.625 3.44531 10.2734C3.16406 9.89844 3.02344 9.51172 3.02344 9.11328C3.02344 8.90234 3.11719 8.70312 3.30469 8.51562C3.46875 8.35156 3.69141 8.26953 3.97266 8.26953C4.20703 8.26953 4.39453 8.33984 4.53516 8.48047C4.67578 8.62109 4.79297 8.79688 4.88672 9.00781C4.98047 9.21875 5.10938 9.42969 5.27344 9.64062C5.4375 9.82812 5.61328 9.96875 5.80078 10.0625C6.08203 10.1797 6.39844 10.2383 6.75 10.2383C7.26562 10.2383 7.69922 10.1211 8.05078 9.88672C8.35547 9.67578 8.50781 9.41797 8.50781 9.11328C8.50781 8.85547 8.42578 8.65625 8.26172 8.51562C8.07422 8.32812 7.85156 8.19922 7.59375 8.12891C7.5 8.08203 7.10156 7.98828 6.39844 7.84766C5.78906 7.73047 5.22656 7.56641 4.71094 7.35547C4.19531 7.12109 3.82031 6.85156 3.58594 6.54688C3.32812 6.21875 3.19922 5.79688 3.19922 5.28125C3.19922 4.8125 3.33984 4.39063 3.62109 4.01562C3.92578 3.64062 4.34766 3.34766 4.88672 3.13672C5.35547 2.94922 5.98828 2.85547 6.78516 2.85547C7.41797 2.85547 7.91016 2.91406 8.26172 3.03125C8.73047 3.19531 9.09375 3.37109 9.35156 3.55859C9.63281 3.76953 9.84375 4.00391 9.98438 4.26172C10.1016 4.47266 10.1602 4.71875 10.1602 5C10.1602 5.23438 10.0781 5.43359 9.91406 5.59766C9.72656 5.78516 9.50391 5.87891 9.24609 5.87891C9.03516 5.87891 8.84766 5.82031 8.68359 5.70312C8.51953 5.53906 8.39062 5.375 8.29688 5.21094C8.08594 4.88281 7.89844 4.64844 7.73438 4.50781C7.5 4.32031 7.13672 4.22656 6.64453 4.22656C6.22266 4.22656 5.85938 4.32031 5.55469 4.50781C5.27344 4.69531 5.13281 4.90625 5.13281 5.14062C5.13281 5.23438 5.17969 5.35156 5.27344 5.49219C5.41406 5.63281 5.54297 5.72656 5.66016 5.77344C5.70703 5.79688 5.76562 5.83203 5.83594 5.87891C5.90625 5.90234 5.96484 5.92578 6.01172 5.94922C6.08203 5.97266 6.14062 5.98438 6.1875 5.98438C6.30469 6.00781 6.59766 6.07812 7.06641 6.19531C7.65234 6.3125 8.12109 6.42969 8.47266 6.54688C8.98828 6.71094 9.36328 6.875 9.59766 7.03906C9.87891 7.22656 10.1133 7.48438 10.3008 7.8125C10.4883 8.14062 10.582 8.51562 10.582 8.9375C10.582 9.40625 10.4297 9.875 10.125 10.3438Z" fill="white"/>
</svg>
