<svg width="17" height="14" viewBox="0 0 17 14" fill="none" xmlns="http://www.w3.org/2000/svg">
<path d="M16.5938 2.11719C16.1719 2.77344 15.6094 3.35937 14.9062 3.875V4.29688C14.9062 6.75781 14.0156 8.99609 12.2344 11.0117C10.4766 13.0039 8.13281 14 5.20312 14C3.32812 14 1.59375 13.4844 0 12.4531C0.375 12.5 0.644531 12.5234 0.808594 12.5234C2.37891 12.5234 3.78516 12.0312 5.02734 11.0469C4.30078 11.0234 3.64453 10.8008 3.05859 10.3789C2.47266 9.93359 2.07422 9.37109 1.86328 8.69141C2.14453 8.73828 2.35547 8.76172 2.49609 8.76172C2.73047 8.76172 3.03516 8.71484 3.41016 8.62109C2.63672 8.45703 1.98047 8.07031 1.44141 7.46094C0.925781 6.82812 0.667969 6.10156 0.667969 5.28125V5.24609C1.18359 5.52734 1.69922 5.66797 2.21484 5.66797C1.20703 5.01172 0.703125 4.0625 0.703125 2.82031C0.703125 2.23437 0.855469 1.67187 1.16016 1.13281C2.96484 3.35937 5.29688 4.54297 8.15625 4.68359C8.10938 4.51953 8.08594 4.26172 8.08594 3.91016C8.08594 2.94922 8.41406 2.14063 9.07031 1.48438C9.72656 0.828125 10.5352 0.5 11.4961 0.5C12.457 0.5 13.2773 0.863281 13.957 1.58984C14.6602 1.47266 15.3867 1.19141 16.1367 0.746094C15.9023 1.56641 15.3984 2.19922 14.625 2.64453C15.3516 2.57422 16.0078 2.39844 16.5938 2.11719ZM14.5547 3.41797C14.5781 3.39453 14.6367 3.34766 14.7305 3.27734C14.8477 3.20703 14.918 3.16016 14.9414 3.13672L14.8008 3.17188C14.707 3.17188 14.625 3.17188 14.5547 3.17188C14.4844 3.17188 14.3906 3.17188 14.2734 3.17188L13.5352 2.99609C13.8633 2.69141 14.0742 2.49219 14.168 2.39844L14.5547 2.01172C14.5078 2.03516 14.4258 2.05859 14.3086 2.08203C14.1914 2.10547 14.1094 2.11719 14.0625 2.11719L13.7812 2.1875L13.5703 1.97656C13.0078 1.36719 12.3164 1.0625 11.4961 1.0625C10.6992 1.0625 10.0195 1.34375 9.45703 1.90625C8.91797 2.46875 8.64844 3.13672 8.64844 3.91016C8.64844 4.05078 8.67188 4.26172 8.71875 4.54297L8.89453 5.28125L8.12109 5.24609C6.69141 5.17578 5.30859 4.80078 3.97266 4.12109C3.08203 3.67578 2.20312 3.01953 1.33594 2.15234C1.28906 2.43359 1.26562 2.65625 1.26562 2.82031C1.26562 3.82813 1.6875 4.625 2.53125 5.21094C3.30469 5.75 3.84375 6.08984 4.14844 6.23047H2.17969C1.89844 6.23047 1.61719 6.19531 1.33594 6.125C1.47656 6.61719 1.74609 7.05078 2.14453 7.42578C2.54297 7.77734 3 8 3.51562 8.09375L5.66016 8.44531L3.51562 9.18359C3.28125 9.25391 3.03516 9.28906 2.77734 9.28906C3.36328 10.0859 4.11328 10.4844 5.02734 10.4844L6.60938 10.5195L5.37891 11.5039C4.74609 11.9961 4.04297 12.3828 3.26953 12.6641C2.75391 12.8281 2.41406 12.9219 2.25 12.9453C3.23438 13.2734 4.21875 13.4375 5.20312 13.4375C6.63281 13.4375 7.94531 13.1562 9.14062 12.5938C10.2188 12.1016 11.168 11.3984 11.9883 10.4844C12.6914 9.71094 13.2773 8.72656 13.7461 7.53125C14.1445 6.45312 14.3438 5.375 14.3438 4.29688V3.875L14.3086 3.59375L14.5547 3.41797Z" fill="white"/>
</svg>
