<svg width="14" height="14" viewBox="0 0 14 14" fill="none" xmlns="http://www.w3.org/2000/svg">
<path d="M4.21875 2.71875C4.03125 2.90625 3.79167 3 3.5 3C3.20833 3 2.96875 2.90625 2.78125 2.71875C2.59375 2.53125 2.5 2.29167 2.5 2V1C2.5 0.708333 2.59375 0.46875 2.78125 0.28125C2.96875 0.09375 3.20833 0 3.5 0C3.79167 0 4.03125 0.09375 4.21875 0.28125C4.40625 0.46875 4.5 0.708333 4.5 1V2C4.5 2.29167 4.40625 2.53125 4.21875 2.71875ZM11.2188 2.71875C11.0312 2.90625 10.7917 3 10.5 3C10.2083 3 9.96875 2.90625 9.78125 2.71875C9.59375 2.53125 9.5 2.29167 9.5 2V1C9.5 0.708333 9.59375 0.46875 9.78125 0.28125C9.96875 0.09375 10.2083 0 10.5 0C10.7917 0 11.0312 0.09375 11.2188 0.28125C11.4062 0.46875 11.5 0.708333 11.5 1V2C11.5 2.29167 11.4062 2.53125 11.2188 2.71875ZM13.75 1C13.9167 1 14 1.08333 14 1.25V13.75C14 13.9167 13.9167 14 13.75 14H0.25C0.0833333 14 0 13.9167 0 13.75V1.25C0 1.08333 0.0833333 1 0.25 1H2V2.28125C2 2.61458 2.14583 2.90625 2.4375 3.15625C2.75 3.38542 3.10417 3.5 3.5 3.5C3.89583 3.5 4.23958 3.38542 4.53125 3.15625C4.84375 2.90625 5 2.61458 5 2.28125V1H9V2.28125C9 2.61458 9.15625 2.90625 9.46875 3.15625C9.78125 3.38542 10.1354 3.5 10.5312 3.5C10.9062 3.5 11.2396 3.38542 11.5312 3.15625C11.8438 2.90625 12 2.61458 12 2.28125V1H13.75ZM12.5 12.5V4.5H1.5V12.5H12.5Z" fill="#1A1A1A"/>
</svg>
