<svg width="14" height="12" viewBox="0 0 14 12" fill="none" xmlns="http://www.w3.org/2000/svg">
<path d="M12.4062 8.25H11.0938V6.65625H9.5V5.34375H11.0938V3.75H12.4062V5.34375H14V6.65625H12.4062V8.25ZM12 12H6H0C0 11.4583 0.0208333 11.0417 0.0625 10.75C0.145833 10.3333 0.989583 9.82292 2.59375 9.21875C2.84375 9.13542 3.14583 9.03125 3.5 8.90625C3.97917 8.73958 4.26042 8.61458 4.34375 8.53125C4.42708 8.42708 4.46875 8.14583 4.46875 7.6875C4.46875 7.60417 4.46875 7.54167 4.46875 7.5C4.46875 7.25 4.375 7.01042 4.1875 6.78125C4 6.53125 3.85417 6.10417 3.75 5.5C3.70833 5.29167 3.64583 5.125 3.5625 5C3.47917 4.875 3.39583 4.625 3.3125 4.25C3.25 4.0625 3.23958 3.88542 3.28125 3.71875C3.34375 3.55208 3.375 3.44792 3.375 3.40625C3.33333 3.07292 3.29167 2.72917 3.25 2.375C3.20833 1.89583 3.41667 1.38542 3.875 0.84375C4.33333 0.28125 5.04167 0 6 0C6.95833 0 7.66667 0.28125 8.125 0.84375C8.58333 1.38542 8.79167 1.89583 8.75 2.375C8.70833 2.72917 8.66667 3.07292 8.625 3.40625C8.625 3.44792 8.64583 3.55208 8.6875 3.71875C8.75 3.88542 8.75 4.0625 8.6875 4.25C8.60417 4.625 8.52083 4.875 8.4375 5C8.35417 5.125 8.29167 5.29167 8.25 5.5C8.14583 6.10417 8 6.53125 7.8125 6.78125C7.625 7.01042 7.53125 7.25 7.53125 7.5C7.53125 8.125 7.59375 8.47917 7.71875 8.5625C7.76042 8.60417 8.27083 8.80208 9.25 9.15625C9.29167 9.17708 9.34375 9.19792 9.40625 9.21875C11.0104 9.82292 11.8542 10.3333 11.9375 10.75L12 12Z" fill="black"/>
</svg>
