<svg width="16" height="17" viewBox="0 0 16 17" fill="none" xmlns="http://www.w3.org/2000/svg">
<path d="M15.4688 7.65234C15.6562 7.83984 15.75 8.07422 15.75 8.35547C15.75 8.61328 15.6562 8.83594 15.4688 9.02344L14.4492 10.043C14.6367 9.85547 14.7305 9.63281 14.7305 9.375C14.7305 9.09375 14.6367 8.85938 14.4492 8.67188L7.76953 1.95703L7.73438 1.92188H7.69922C7.37109 1.64062 7.05469 1.5 6.75 1.5L3.58594 1.39453H3.44531C3.07031 1.39453 2.76562 1.51172 2.53125 1.74609L3.51562 0.796875C3.79688 0.515625 4.11328 0.375 4.46484 0.375H4.60547L7.76953 0.515625C8.09766 0.515625 8.41406 0.644531 8.71875 0.902344H8.75391L8.78906 0.9375L15.4688 7.65234ZM13.9219 9.16406C14.1094 9.35156 14.2031 9.58594 14.2031 9.86719C14.2031 10.1484 14.1094 10.3828 13.9219 10.5703L10.125 14.4023V14.3672L9.21094 15.3164L9.14062 15.3867L8.68359 15.8438C8.28516 16.2422 7.85156 16.2539 7.38281 15.8789L7.27734 15.7734L0.738281 9.16406L0.5625 8.98828C0.351562 8.75391 0.234375 8.49609 0.210938 8.21484V8.14453L0 5.05078V4.94531V4.91016C0 4.51172 0.140625 4.17188 0.421875 3.89062L1.96875 2.30859L2.00391 2.27344L2.03906 2.23828C2.29688 2.02734 2.60156 1.92188 2.95312 1.92188H3.09375L6.25781 2.02734C6.58594 2.02734 6.90234 2.15625 7.20703 2.41406L7.27734 2.44922L13.9219 9.16406ZM2.77734 4.17188C2.28516 4.5 2.03906 4.93359 2.03906 5.47266C2.03906 5.89453 2.17969 6.25781 2.46094 6.5625C2.76562 6.84375 3.12891 6.98438 3.55078 6.98438C4.08984 6.98438 4.52344 6.73828 4.85156 6.24609C5.01562 5.96484 5.09766 5.70703 5.09766 5.47266C5.09766 5.05078 4.94531 4.6875 4.64062 4.38281C4.33594 4.07812 3.97266 3.92578 3.55078 3.92578C3.31641 3.92578 3.05859 4.00781 2.77734 4.17188Z" fill="#1A1A1A"/>
</svg>
