<svg width="24" height="18" viewBox="0 0 24 18" fill="none" xmlns="http://www.w3.org/2000/svg">
<path d="M23.8594 15.3281V15.7031V15.75V15.8906C23.8594 15.9531 23.8438 16.0156 23.8125 16.0781C23.8125 16.1406 23.8125 16.1875 23.8125 16.2188C23.7812 16.7812 23.6875 17.0938 23.5312 17.1562C23.4375 17.2188 23.2812 17.25 23.0625 17.25H21.0469C20.7344 17.25 20.5625 17 20.5312 16.5V16.125C21.5312 16.0625 22.3438 16.0625 22.9688 16.125C23.375 16.125 23.625 16.0312 23.7188 15.8438C23.7188 15.8125 23.7656 15.6406 23.8594 15.3281ZM0.140625 15.3281C0.234375 15.6406 0.28125 15.8125 0.28125 15.8438C0.375 16.0312 0.625 16.125 1.03125 16.125C1.65625 16.0625 2.46875 16.0625 3.46875 16.125V16.5C3.4375 17 3.26562 17.25 2.95312 17.25H0.9375C0.71875 17.25 0.5625 17.2188 0.46875 17.1562C0.28125 17.0625 0.171875 16.75 0.140625 16.2188V15.8906V15.75V15.7031V15.3281ZM24 10.9219C24 11.4844 23.9844 12.1406 23.9531 12.8906C23.9219 13.6406 23.9062 14.0469 23.9062 14.1094C23.9062 14.4531 23.8906 14.7344 23.8594 14.9531C23.7656 15.2656 23.7188 15.4375 23.7188 15.4688C23.625 15.6562 23.375 15.75 22.9688 15.75C22.3438 15.6875 21.5312 15.6875 20.5312 15.75C20.3125 15.75 20 15.7656 19.5938 15.7969C19.1875 15.8281 18.8906 15.8438 18.7031 15.8438C18.1719 15.875 17.7969 15.8594 17.5781 15.7969C17.3906 15.7031 17.2344 15.6562 17.1094 15.6562C17.0469 15.6562 16.3906 15.6719 15.1406 15.7031C13.8906 15.7344 12.8438 15.75 12 15.75C11.1562 15.75 10.0938 15.7344 8.8125 15.7031C7.5625 15.6719 6.90625 15.6562 6.84375 15.6562C6.71875 15.6562 6.54688 15.7031 6.32812 15.7969C6.14062 15.8594 5.78125 15.875 5.25 15.8438C5.0625 15.8438 4.76562 15.8281 4.35938 15.7969C3.98438 15.7656 3.6875 15.75 3.46875 15.75C2.46875 15.6875 1.65625 15.6875 1.03125 15.75C0.625 15.75 0.375 15.6562 0.28125 15.4688C0.28125 15.4375 0.234375 15.2656 0.140625 14.9531C0.109375 14.7344 0.09375 14.4531 0.09375 14.1094C0.09375 14.0469 0.078125 13.6406 0.046875 12.8906C0.015625 12.1406 0 11.4844 0 10.9219C0 9.20312 0.09375 8.20312 0.28125 7.92188C0.375 7.76562 0.78125 7.4375 1.5 6.9375C1.59375 6.875 1.71875 6.79688 1.875 6.70312C2.1875 6.51562 2.375 6.3125 2.4375 6.09375C2.40625 6.09375 2.34375 6.07812 2.25 6.04688C2.1875 5.98438 2.14062 5.95312 2.10938 5.95312C2.07812 5.95312 2.01562 5.98438 1.92188 6.04688C1.82812 6.07812 1.70312 6.09375 1.54688 6.09375C0.828125 6.09375 0.390625 6.01562 0.234375 5.85938C0.078125 5.73438 0 5.60938 0 5.48438C0 5.29688 0.078125 5.09375 0.234375 4.875C0.328125 4.75 0.75 4.64062 1.5 4.54688C1.75 4.51562 1.9375 4.53125 2.0625 4.59375C2.09375 4.625 2.125 4.6875 2.15625 4.78125C2.1875 4.84375 2.20312 4.92188 2.20312 5.01562C2.20312 5.10938 2.20312 5.20312 2.20312 5.29688C2.20312 5.39062 2.20312 5.46875 2.20312 5.53125V5.625L2.625 5.67188C2.65625 5.57812 2.73438 5.32812 2.85938 4.92188C2.98438 4.51562 3.125 4.125 3.28125 3.75C3.4375 3.375 3.59375 3.04688 3.75 2.76562C4.21875 1.95313 4.71875 1.45312 5.25 1.26562C5.375 1.23437 6.125 1.14062 7.5 0.984375C9 0.828125 10.5 0.75 12 0.75C13.5312 0.75 15.0312 0.828125 16.5 0.984375C17.875 1.14062 18.625 1.23437 18.75 1.26562C19.2812 1.45312 19.7812 1.95313 20.25 2.76562C20.4062 3.04688 20.5625 3.375 20.7188 3.75C20.875 4.125 21.0156 4.51562 21.1406 4.92188C21.2656 5.32812 21.3438 5.57812 21.375 5.67188L21.7969 5.625C21.7656 5 21.8125 4.65625 21.9375 4.59375C22.0625 4.53125 22.25 4.51562 22.5 4.54688C23.25 4.64062 23.6719 4.75 23.7656 4.875C23.9219 5.09375 24 5.29688 24 5.48438C24 5.57812 23.9219 5.70312 23.7656 5.85938C23.6094 6.01562 23.1719 6.09375 22.4531 6.09375C22.2969 6.09375 22.1719 6.07812 22.0781 6.04688C21.9844 5.98438 21.9219 5.95312 21.8906 5.95312C21.8594 5.95312 21.7969 5.98438 21.7031 6.04688C21.6406 6.07812 21.5938 6.09375 21.5625 6.09375C21.625 6.28125 21.6719 6.39062 21.7031 6.42188C21.7656 6.45312 22.0312 6.625 22.5 6.9375C23.2188 7.4375 23.625 7.76562 23.7188 7.92188C23.9062 8.20312 24 9.20312 24 10.9219ZM4.03125 3.79688C3.625 4.67188 3.46875 5.23438 3.5625 5.48438C3.625 5.64062 3.85938 5.70312 4.26562 5.67188C5.76562 5.57812 8.34375 5.53125 12 5.53125C15.6562 5.53125 18.2344 5.57812 19.7344 5.67188C20.1406 5.70312 20.375 5.64062 20.4375 5.48438C20.5312 5.23438 20.375 4.67188 19.9688 3.79688C19.5625 2.92187 19.1562 2.34375 18.75 2.0625C18.3125 1.84375 17.4688 1.70312 16.2188 1.64062C14.625 1.54688 13.2188 1.5 12 1.5C10.7812 1.5 9.375 1.54688 7.78125 1.64062C6.53125 1.70312 5.6875 1.84375 5.25 2.0625C4.875 2.28125 4.46875 2.85938 4.03125 3.79688ZM5.76562 9.65625L6.28125 9.5625C5.75 9.0625 5 8.67188 4.03125 8.39062C2.78125 8.01562 1.75 7.85938 0.9375 7.92188C0.84375 8.42188 0.84375 8.84375 0.9375 9.1875C1 9.46875 1.25 9.65625 1.6875 9.75C1.75 9.78125 1.82812 9.8125 1.92188 9.84375C2.01562 9.875 2.07812 9.90625 2.10938 9.9375C2.17188 9.9375 2.23438 9.9375 2.29688 9.9375C2.35938 9.9375 2.40625 9.9375 2.4375 9.9375C2.46875 9.9375 2.51562 9.92188 2.57812 9.89062C2.64062 9.82812 2.70312 9.79688 2.76562 9.79688C2.85938 9.76562 2.9375 9.75 3 9.75C3.0625 9.75 3.32812 9.78125 3.79688 9.84375C4.29688 9.90625 4.625 9.9375 4.78125 9.9375C4.90625 9.9375 5.01562 9.92188 5.10938 9.89062C5.23438 9.85938 5.35938 9.82812 5.48438 9.79688C5.60938 9.73438 5.70312 9.6875 5.76562 9.65625ZM16.7812 13.3594C17.1875 13.2969 17.5156 13.1094 17.7656 12.7969C18.0469 12.4531 18.0469 12.125 17.7656 11.8125C17.3281 11.3438 17.0156 11.0781 16.8281 11.0156C16.6406 10.9219 16.0938 10.8125 15.1875 10.6875C14.0938 10.5625 13.0312 10.5 12 10.5C10.9688 10.5 9.90625 10.5625 8.8125 10.6875C7.90625 10.8125 7.35938 10.9219 7.17188 11.0156C6.98438 11.0781 6.67188 11.3438 6.23438 11.8125C5.95312 12.125 5.9375 12.4531 6.1875 12.7969C6.46875 13.1094 6.8125 13.2969 7.21875 13.3594C7.875 13.4531 9.46875 13.5 12 13.5C14.5312 13.5 16.125 13.4531 16.7812 13.3594ZM23.0625 9.1875V7.92188C22.25 7.85938 21.2188 8.01562 19.9688 8.39062C19.5312 8.51562 19.125 8.6875 18.75 8.90625C18.375 9.09375 18.1094 9.25 17.9531 9.375L17.7188 9.60938C17.8438 9.57812 18.0156 9.59375 18.2344 9.65625L19.2188 9.9375C19.375 9.9375 19.6875 9.90625 20.1562 9.84375C20.6562 9.78125 20.9375 9.75 21 9.75C21.0625 9.75 21.125 9.76562 21.1875 9.79688C21.2812 9.79688 21.3594 9.82812 21.4219 9.89062C21.4844 9.92188 21.5312 9.9375 21.5625 9.9375L22.3125 9.75C22.75 9.65625 23 9.46875 23.0625 9.1875Z" fill="#FFB253"/>
</svg>
