<svg width="13" height="16" viewBox="0 0 13 16" fill="none" xmlns="http://www.w3.org/2000/svg">
<path d="M1.79297 2.73047C3.01172 1.53516 4.47656 0.9375 6.1875 0.9375C7.89844 0.9375 9.35156 1.53516 10.5469 2.73047C11.7656 3.90234 12.375 5.32031 12.375 6.98438C12.375 8.57812 11.7773 10.1953 10.582 11.8359C9.41016 13.4766 7.94531 14.7188 6.1875 15.5625V13.0664C4.47656 13.0664 3.01172 12.4688 1.79297 11.2734C0.597656 10.0781 0 8.64844 0 6.98438C0 5.32031 0.597656 3.90234 1.79297 2.73047ZM5.83594 7.37109V5.22656H3.65625V7.37109H4.74609L4.00781 8.77734H5.09766L5.83594 7.37109ZM8.71875 7.37109V5.22656H6.53906V7.37109H7.62891L6.92578 8.77734H8.01562L8.71875 7.37109Z" fill="#1A1A1A"/>
</svg>
