<svg width="15" height="16" viewBox="0 0 15 16" fill="none" xmlns="http://www.w3.org/2000/svg">
<path d="M2.14453 3.08203C3.57422 1.65234 5.29688 0.9375 7.3125 0.9375C9.32812 0.9375 11.0508 1.65234 12.4805 3.08203C13.9102 4.51172 14.625 6.23438 14.625 8.25C14.625 10.2656 13.9102 11.9883 12.4805 13.418C11.0508 14.8477 9.32812 15.5625 7.3125 15.5625C5.29688 15.5625 3.57422 14.8477 2.14453 13.418C0.714844 11.9883 0 10.2656 0 8.25C0 6.23438 0.714844 4.51172 2.14453 3.08203ZM6.1875 10.8516L10.8984 6.10547L10.2656 5.47266L5.87109 9.90234L4.21875 8.25L3.58594 8.88281L5.55469 10.8516C5.64844 10.9453 5.75391 10.9922 5.87109 10.9922C5.98828 10.9922 6.09375 10.9453 6.1875 10.8516Z" fill="#1A1A1A"/>
</svg>
