<svg width="21" height="22" viewBox="0 0 21 22" fill="none" xmlns="http://www.w3.org/2000/svg">
<path d="M3.04688 3.59375C5.10938 1.53125 7.59375 0.5 10.5 0.5C13.4062 0.5 15.875 1.53125 17.9062 3.59375C19.9688 5.625 21 8.09375 21 11C21 13.9062 19.9688 16.3906 17.9062 18.4531C15.875 20.4844 13.4062 21.5 10.5 21.5C7.59375 21.5 5.10938 20.4844 3.04688 18.4531C1.01562 16.3906 0 13.9062 0 11C0 8.09375 1.01562 5.625 3.04688 3.59375ZM10.875 2.75C10.875 2.5 10.75 2.375 10.5 2.375C10.25 2.375 10.125 2.5 10.125 2.75C10.125 3 10.25 3.125 10.5 3.125C10.75 3.125 10.875 3 10.875 2.75ZM1.875 11C1.875 11.25 2 11.375 2.25 11.375C2.5 11.375 2.625 11.25 2.625 11C2.625 10.75 2.5 10.625 2.25 10.625C2 10.625 1.875 10.75 1.875 11ZM3.5625 15.4531C3.75 15.3594 3.78125 15.1875 3.65625 14.9375C3.5625 14.75 3.40625 14.7031 3.1875 14.7969C2.96875 14.8906 2.92188 15.0625 3.04688 15.3125C3.14062 15.5312 3.3125 15.5781 3.5625 15.4531ZM3.65625 7.0625C3.78125 6.8125 3.75 6.64062 3.5625 6.54688C3.3125 6.42188 3.14062 6.46875 3.04688 6.6875C2.92188 6.9375 2.96875 7.10938 3.1875 7.20312C3.40625 7.29688 3.5625 7.25 3.65625 7.0625ZM6.1875 3.54688C5.96875 3.64062 5.92188 3.8125 6.04688 4.0625C6.14062 4.25 6.3125 4.28125 6.5625 4.15625C6.75 4.0625 6.79688 3.90625 6.70312 3.6875C6.60938 3.46875 6.4375 3.42187 6.1875 3.54688ZM6.1875 18.4531C6.4375 18.5781 6.60938 18.5312 6.70312 18.3125C6.79688 18.0938 6.75 17.9375 6.5625 17.8438C6.3125 17.7188 6.14062 17.75 6.04688 17.9375C5.92188 18.1875 5.96875 18.3594 6.1875 18.4531ZM10.125 19.25C10.125 19.5 10.25 19.625 10.5 19.625C10.75 19.625 10.875 19.5 10.875 19.25C10.875 19 10.75 18.875 10.5 18.875C10.25 18.875 10.125 19 10.125 19.25ZM10.875 11.6562C11.3125 11.4375 11.4062 11.0938 11.1562 10.625C11 10.375 10.7812 10.25 10.5 10.25L8.71875 7.25C8.625 7.0625 8.45312 7.03125 8.20312 7.15625C8.01562 7.25 7.98438 7.42188 8.10938 7.67188L9.84375 10.625C9.6875 10.875 9.6875 11.125 9.84375 11.375C9.875 11.4062 9.90625 11.4531 9.9375 11.5156C9.96875 11.5469 10 11.5781 10.0312 11.6094C10.0625 11.6406 10.0938 11.6562 10.125 11.6562V17.375C10.125 17.625 10.25 17.75 10.5 17.75C10.75 17.75 10.875 17.625 10.875 17.375V11.6562ZM14.8125 18.4531C15.0312 18.3594 15.0781 18.1875 14.9531 17.9375C14.8594 17.75 14.6875 17.7188 14.4375 17.8438C14.25 17.9375 14.2031 18.0938 14.2969 18.3125C14.3906 18.5312 14.5625 18.5781 14.8125 18.4531ZM14.9531 4.0625C15.0781 3.8125 15.0312 3.64062 14.8125 3.54688C14.5625 3.42187 14.3906 3.46875 14.2969 3.6875C14.2031 3.90625 14.25 4.0625 14.4375 4.15625C14.6875 4.28125 14.8594 4.25 14.9531 4.0625ZM17.9531 15.3125C18.0781 15.0625 18.0312 14.8906 17.8125 14.7969C17.5938 14.7031 17.4375 14.75 17.3438 14.9375C17.2188 15.1875 17.25 15.3594 17.4375 15.4531C17.6875 15.5781 17.8594 15.5312 17.9531 15.3125ZM17.3438 7.0625C17.4375 7.25 17.5938 7.29688 17.8125 7.20312C18.0312 7.10938 18.0781 6.9375 17.9531 6.6875C17.8594 6.46875 17.6875 6.42188 17.4375 6.54688C17.25 6.64062 17.2188 6.8125 17.3438 7.0625ZM18.375 11C18.375 11.25 18.5 11.375 18.75 11.375C19 11.375 19.125 11.25 19.125 11C19.125 10.75 19 10.625 18.75 10.625C18.5 10.625 18.375 10.75 18.375 11Z" fill="#FFB253"/>
</svg>
